<?xml version="1.0"?><svg version="1.2" baseProfile="tiny-ps" viewBox="0 0 300 300" xmlns="http://www.w3.org/2000/svg" xmlns:xlink="http://www.w3.org/1999/xlink"><title>cloudcontinuous</title><g><g fill="#fefefe" transform="matrix(.1 0 0 -.1 0 300)"><path d="M0 1500V0h3000v3000H0V1500z"/></g><g fill="#dbdbdb" transform="matrix(.1 0 0 -.1 0 300)"><path d="M0 1500V0h3000v3000H0V1500zm1030 1075v-15h68l6-15 5-15h51v-10c0-5 7-10 15-10h15v-30h50v-15c0-8 5-15 11-15 14 0 39-25 39-39v-11h30v-15c0-8 5-15 11-15 14 0 39-25 39-39v-11h30v-30h11c14 0 39-25 39-39 0-6 7-11 15-11h15v-30h11c6 0 24-13 40-29s29-34 29-40v-11h30v-30h11c14 0 39-25 39-39 0-6 7-11 15-11h15v-30h11c14 0 39-25 39-39 0-6 7-11 15-11h15v-15c0-8 5-15 11-15 14 0 39-25 39-39v-11h30v-15c0-8 5-15 11-15 14 0 39-25 39-39v-11h30v-30h15c8 0 15-4 15-10v-10h50v-30h78l5-12 4-13 49 2 49 2 3 10 4 11h49l15 15c9 8 24 15 35 15h20l23 25c13 14 28 25 35 25h11v50h30v15c0 8 4 15 10 15h10l6 40 7 40h17v130h-19l-7 45-6 45h-9c-5 0-9 7-9 15v15h-30v11c0 14-25 39-39 39-6 0-11 7-11 15v15h-15c-8 0-15 4-15 9s-13 12-30 16c-16 4-30 11-30 16v9h-210v-9c0-5-13-12-30-16-16-4-30-11-30-16s-7-9-15-9h-14l-55-55-54-55h-35l-52 55-53 55h-32v21c0 22 22 49 39 49 6 0 11 5 11 11 0 14 55 69 69 69h11v30h30v30h50v9c0 5 11 12 25 15 14 4 25 11 25 16v10h59l15 15 15 15h261v-30h80v-30h50v-10c0-5 6-10 14-10s16-7 20-15l5-15h41v-30h15c8 0 15-4 15-10 0-5 7-10 15-10h15v-15c0-8 5-15 10-15 6 0 10-7 10-15v-15h30v-31l15-5 15-6v-58h9c5 0 12-13 16-30 4-16 11-30 16-30h9v-101l15-5 15-6v-119l-15-15-15-15v-109h-30v-50h-20v-22l-1-23-29-25c-17-13-30-30-30-37 0-17-36-53-53-53-14 0-47-35-47-50v-10h-50v-10c0-5-7-10-15-10h-16l-5-15-6-15h-68v-30h-140v-20h-50v20h-128l-6 15-5 15h-69l-6 15-5 15h-41v10c0 6-4 10-10 10-5 0-23 14-40 30s-37 30-45 30h-15v30h-11c-6 0-17 6-25 14s-14 19-14 25v11h-30v30h-11c-6 0-17 6-25 14s-14 19-14 25v11h-30v30h-11c-6 0-17 6-25 14s-14 19-14 25v11h-30v30h-15c-8 0-15 5-15 10 0 6-7 10-15 10h-15v11c0 6-13 24-29 40s-34 29-40 29-11 5-11 11-13 24-29 40-34 29-40 29h-11v15c0 8-4 15-10 15-5 0-10 7-10 15v15h-30v15c0 8-5 15-10 15-13 0-70 57-70 70 0 6-6 10-13 10s-21 11-31 25-23 25-28 25-16 7-24 15l-15 15h-49v20H790v-20h-51l-5-15-6-15h-48v-30h-30v-11c0-7-11-22-25-35l-25-23v-61h-30v-191l15-15 15-15v-50l14-15c8-8 19-14 25-14s11-7 11-15v-15h30v-11c0-6 6-17 14-25l15-14h51v-30h58l4-11 4-12 59 1h59l4 11 4 11h58v10c0 5 11 12 25 16 14 3 25 10 25 15s6 9 14 9c17 0 75 54 101 93l18 28 21-7c11-4 23-11 24-15 2-5 10-9 18-9h14v-30h15c8 0 15-5 15-11s16-25 35-43c19-19 35-37 35-40 0-11-27-36-39-36-6 0-11-5-11-11 0-14-55-69-69-69h-11v-30h-30v-30h-50v-10c0-5-7-10-15-10h-15v-30h-80v-30H920v-20h-50v20H739l-15 15-15 15h-59v10c0 5-11 12-25 16-14 3-25 10-25 15v9h-50v30h-30v11c0 14-55 69-69 69h-11v50h-30v15c0 8-4 15-10 15h-10v51l-15 5-15 6v69l-15 5-15 6v276l15 6 15 5v61h10c5 0 12 11 16 25 3 14 10 25 15 25h9v50h30v30h30v15c0 17 47 65 63 65 5 0 20 11 33 25s30 25 39 25c8 0 15 5 15 10v10h19c11 0 26 7 35 15l15 15h51v30h290v-15zM627 1043l-3-78v310l3-77c2-43 2-113 0-155zm892 70c-1-87-3-150-6-140l-4 17h-32l16 18 17 19v96l-17 13-18 13 18 1h17v60c0 33 2 60 5 60s4-71 4-157zm-1003 62 15-15h-15c-9 0-16 5-16 10v10H400v-10c0-5-7-10-15-10h-16l13 15 13 14 53 1h53l15-15zm370 0 15-15h-15c-9 0-16 5-16 10v10h-79l-6-10c-3-5-10-10-15-10h-9l5 15 6 15h99l15-15zm147-32c-3-27 0-73 5-105l9-56-14 5-13 5v198h17l-4-47zm385 40-47-4-36-36-37-37 4-38 4-38h-16v90h8c5 0 15 11 22 25l13 25h14c7 0 13 5 13 10v10l53-2 52-2-47-3zm-1065-53c-3-12-8-19-11-16-5 6 5 36 12 36 2 0 2-9-1-20zm385 0-13-20-4 11-3 11 13 9c20 12 21 11 7-11zm193-1 11-21-11-11-11-11v20c0 11-5 25-12 32l-12 12h12c6 0 16-9 23-21zm-604-76-5-18v70l5-17c2-10 2-26 0-35zm397-3c3-14 15-35 26-48 11-12 17-22 13-22-5 0-17 9-27 21l-18 21-4 37c-4 38 0 33 10-9zm-365-55 1-10-10 15c-5 8-9 22-9 30v15l9-20c5-11 9-24 9-30zm569 20c-6-14-13-24-14-22-6 6 9 47 17 47h9l-12-25zm282 0v-25h-32l6 16c3 9 6 20 6 25s5 9 10 9h10v-25zm135-33c-6-6-35 18-35 29 0 5 9 1 20-8s17-19 15-21zm-867-19c-16-2-40-2-55 0l-28 4h110l-27-4zm375 0c-13-2-35-2-50 0l-28 4h100l-22-4zm270 0c-13-2-33-2-45 0l-23 4h90l-22-4zm310 0c-13-2-35-2-50 0l-28 4h100l-22-4zm-182-297-1-145 22-4 23-4-27-2-27-1-3 113c-3 118 1 202 9 193 3-2 5-70 4-150zm133 147c-5-5-12-12-16-18l-8-10v35h33l-9-7zM665 694l-34-36-4-46-3-47-2 53-2 52h10c6 0 10 5 10 11 0 7 10 20 22 30 36 32 38 21 3-17zm157 12c4-6 7-18 7-26v-15l-11 21c-5 12-20 27-32 33l-21 11 25-6c14-4 28-12 32-18zm281 4 17-20-2-93-2-92-5 92-6 93-17 20c-10 11-14 20-10 20s15-9 25-20zm264-147-3-58v230l3-57c2-32 2-84 0-115zm114 137c5 0 9-7 9-15s-4-15-10-15h-9l-4-82-3-83-1 115c0 63 1 107 4 98 2-10 9-18 14-18zm160-6 18-29v-77l1-78h-18l-4 95-4 95-19 16-20 15 15-4c8-2 22-17 31-33zm96-86-4-43v170l4-42c2-24 2-62 0-85zm182 10-1-113-6 25c-7 26-4 200 4 200 2 0 4-51 3-112zm271 102 15-10h-10c-5 0-17 5-25 10l-15 10h10c6 0 17-5 25-10zm155-189c6-5 28-11 50-14l40-4-42-1-42-2-15 16-16 15 2 97 2 97 5-97 6-97 10-10zM962 691c-6-3-12-17-15-31l-4-25-2 37-1 37 16-6 16-6-10-6zm-609-11c-3-12-8-19-11-16-5 6 5 36 12 36 2 0 2-9-1-20zm1680-9c-6-3-13-13-16-21l-5-15-1 27-1 26 13 5 12 4 4-10c2-5-1-12-6-16zm192-1c20-39 19-69-5-105l-20-30v12c0 6 5 15 10 18l10 6v45c0 25-5 54-10 65-6 10-8 19-6 19 3 0 12-13 21-30zM847 593l-4-28v110l4-27c2-16 2-40 0-55zm-520 10-5-18v70l5-17c2-10 2-26 0-35zm2303 38c0-5 10-13 22-17 12-3 28-12 35-20l13-13-1-28-2-28-4 25-5 24-21 18c-11 10-24 18-29 18s-16 7-24 15l-15 15h15c9 0 16-4 16-9zm-590-98c0-2-7 2-15 11-8 8-15 23-15 33v18l15-29c8-15 15-30 15-33zm-1658-7 22-16h95l15 15c8 8 20 15 26 15h11l-17-17-18-18H382l-21 24c-12 13-21 31-20 40v16l9-21c5-12 19-29 32-38zm2114 7c-2-3-9-3-14-2l-10 4 11 25 10 25 5-23c2-13 1-26-2-29zM680 523c0-2-9 2-20 9s-20 19-20 27v14l20-23c11-13 20-25 20-27zm143 19-5-22h-29l18 24c21 28 24 28 16-2zm933 1c-10-10-19 5-10 18l8 13 4-13c2-7 1-15-2-18zm309-13 6-10h-10c-6 0-11 5-11 10 0 6 2 10 4 10 3 0 8-4 11-10zm118-11-10-10-49 4-49 3 53 2 52 2v23l7-6 7-7-11-11zm-318 1-6-10-42 2-42 1 45 7c25 4 46 8 48 8 2 1 0-2-3-8zm810 0-6-10-37 1-37 2 40 7c22 4 41 8 43 9 2 0 0-3-3-9zm-1912-7c-13-2-35-2-50 0l-28 4h100l-22-4z"/></g><g fill="#b0b0b0" transform="matrix(.1 0 0 -.1 0 300)"><path d="M0 1500V0h3000v3000H0V1500zm1036 1075 15-15h59v-10c0-5 11-12 25-16 14-3 25-10 25-15v-9h50v-15c0-8 5-15 10-15 6 0 21-11 34-25s28-25 35-25c6 0 11-5 11-11 0-14 55-69 69-69 6 0 11-5 11-11 0-14 25-39 39-39 6 0 11-7 11-15v-15h30v-11c0-6 13-24 29-40s34-29 40-29 11-5 11-11 13-24 29-40 34-29 40-29 11-5 11-11 13-24 29-40 34-29 40-29 11-5 11-11 13-24 29-40 34-29 40-29h11v-15c0-8 5-15 11-15 14 0 39-25 39-39v-11h30v-30h30v-11c0-15 22-35 48-43 12-4 22-12 22-17v-9h60v-30h208l6 15 5 15h44l23 25c13 14 28 25 33 25 6 0 16 10 22 23 7 12 18 26 25 30l14 8v49h20v19c0 10 7 38 15 62l15 43-9 5c-5 4-13 30-17 59-3 28-10 52-14 52s-11 11-14 25c-4 14-11 25-16 25-6 0-10 4-10 9s-15 26-34 45l-33 36h-17c-9 0-16 5-16 10v10h-17c-10 0-31 7-47 15l-28 15h-128v-20l-40-6-40-7v-8c0-5-7-9-15-9h-15v-30h-11c-14 0-69-55-69-69v-11h-15c-8 0-15-4-15-10v-10h-40l-82 83-83 83 37 34c21 19 37 41 38 48v12h15c8 0 15 4 15 9s10 13 23 17c12 4 32 17 44 30s27 24 33 24c5 0 10 5 10 10v10h41l5 15 6 15h69l5 15 6 15h309l5-15 6-15h48v-9c0-5 14-12 30-16 17-4 30-11 30-16v-9h50v-15c0-8 5-15 11-15 14 0 39-25 39-39 0-6 4-11 10-11 13 0 50-32 50-43 0-12 27-37 39-37h11v-60h10c5 0 12-11 16-25 3-14 10-25 14-25s10-23 12-52l5-52 12-4 11-4v-179l-15-15-15-15v-79h-9c-5 0-12-13-16-30-4-16-11-30-16-30h-9v-42l-27-28c-43-45-53-58-53-70 0-5-7-10-15-10h-15v-28l-25-6c-14-4-25-11-25-16 0-6-7-10-15-10s-15-4-15-10c0-5-11-12-25-16-14-3-25-10-25-15v-9h-60v-30h-130v-20h-130v20h-110v30h-60v10c0 5-11 12-25 16-14 3-25 10-25 15v9h-50v30h-30v11c0 14-25 39-39 39-6 0-11 7-11 15v15h-15c-8 0-15 5-15 11 0 14-25 39-39 39-6 0-11 7-11 15v15h-15c-8 0-15 5-15 11 0 14-25 39-39 39-6 0-11 7-11 15v15h-15c-8 0-15 5-15 11s-6 17-14 25-19 14-25 14-11 7-11 15v15h-30v15c0 8-5 15-11 15s-17 6-25 14-14 19-14 25-7 11-15 11h-15v15c0 8-5 15-11 15s-17 6-25 14-14 19-14 25-7 11-15 11h-15v30h-15c-8 0-15 5-15 11 0 14-25 39-39 39-6 0-11 7-11 15v15h-15c-8 0-15 5-15 11 0 14-25 39-39 39-6 0-11 7-11 15v15h-15c-8 0-15 4-15 10 0 5-11 12-25 16-14 3-25 10-25 15v9l-40 6-40 7v17H810v-20l-40-6-40-7v-8c0-5-7-9-15-9h-15v-30h-39l-6-22c-4-11-18-31-31-43l-24-22v-73h-30v-139l15-15 15-15v-51h9c5 0 12-11 15-25 4-14 11-25 16-25 6 0 10-7 10-15v-15h11c7 0 22-11 35-25l23-25h19c10 0 27-7 38-15l19-14 92-1h92l15 15 15 15h43l29 29c16 16 29 34 29 40s5 11 11 11c14 0 69 55 69 69v11h50v-30h30v-11c0-14 25-39 39-39 6 0 11-7 11-15v-15h30v-11c0-6 7-17 15-25 19-20 19-40 0-56-9-7-21-19-28-26-58-62-93-92-107-92-5 0-10-7-10-15v-15h-15c-8 0-15-4-15-9s-13-12-30-16c-16-4-30-11-30-16v-9h-49l-15-15-15-15H950v-20H810v20H710v20l-40 6-40 7v8c0 5-7 9-15 9h-15v30h-50v30h-30v15c0 8-5 15-11 15-14 0-39 25-39 39v11h-30v30h-30v50h-10c-5 0-12 11-16 25-3 14-10 25-15 25h-9v60h-30v311l15 15 15 15v59h10c5 0 12 11 16 25 3 14 10 25 15 25s9 7 9 15v15h30v50h30v30h11c13 0 39 25 39 38 0 5 11 13 25 16 14 4 25 11 25 16 0 6 7 10 15 10s15 4 15 9 14 12 30 16c17 4 30 11 30 16v9h49l13 15 13 14 143 1h143l15-15zM640 1119V960h-20v331l10-6 10-6v-160zm879 4c-1-93-3-160-6-150-5 21-12 21-38 3-11-7-32-16-46-19l-25-6-35 9-35 10-22 25-22 25v53l1 52 29 33 30 32h111l15-15c9-8 20-15 25-15h9v65c0 36 2 65 5 65s4-75 4-167zm-989 50c24-21 26-33 5-33-8 0-15 4-15 10 0 5-18 15-39 21l-40 12-30-12c-16-7-37-21-47-32l-17-18-1-40-1-39 14-26 14-26h14c7 0 13-4 13-10v-10h100v8c0 5 11 14 25 20l25 12v-10c0-5-12-17-26-27l-26-17h-47l-48-1-25 13c-13 8-32 26-41 42l-17 28v80l33 36 32 35 62 1h63l20-17zm382-15 33-32v-104l-24-26c-13-14-39-30-57-36l-33-11-39 10-39 11-15 17c-9 10-21 34-27 54l-12 36 11 29c6 16 23 41 38 56l27 27h52l52 1 33-32zm128-61v-93l20-17 20-17h60v10c0 6 5 10 11 10 7 0 18 8 25 18l13 17 1 83v82h30V960h-30v15c0 8-4 15-10 15-5 0-10-4-10-9s-17-13-38-18l-38-10-23 8c-12 5-29 15-37 23l-14 15v191h20v-93zm238-359 27-11-25-6-25-7-3-74c-2-41 0-85 3-97l5-23h15c8 0 15-4 15-10v-10h-50v220h-50v9c0 5 10 11 23 13l22 3 5 45 4 45 4-43 3-43 27-11zm108 81 6-11-10-10-11-11-15 16-16 15 13 5c19 8 25 8 33-4zm-869-91 33-12v-13c0-17-6-16-36 3l-25 17h-78l-25-17-25-16-10-35-9-35 8-31 9-30 23-19 23-19 44-1h44l18 16c10 9 22 14 28 13l10-4-7-12c-4-6-28-17-54-24l-46-13-40 13-40 14-21 28-21 28v79l17 30c21 36 46 49 102 51l45 1 33-12zm297-13 29-25 5-51 5-52-17-32-17-31-33-12c-62-23-117-7-150 42l-16 25v41c0 47 13 77 44 102l21 18h100l29-25zm288 8 18-16-2-101-1-101-7 85c-7 100-14 118-48 131l-25 10-33-11-34-12v-38h-20V510h-30v220h15c8 0 15-4 15-10 0-15 17-12 32 5l13 14 44 1h44l19-17zm265-155-3-63v240l3-57c2-32 2-86 0-120zm112 142c4 0 16 7 27 15l19 14h80l18-13c9-7 17-18 17-25 0-6 5-11 10-11h10V510h-30v171l-10 19-9 18-26 6-25 6-35-14-35-15v-15c0-9-4-16-10-16h-9l-4-82-3-83-1 120c0 66 1 112 4 103 2-10 8-18 12-18zm273-69 5-90 16-15 16-16h62l18 18c10 9 23 27 30 39l11 22v142l10-6 10-6V510h-10c-5 0-10 7-10 16s-3 14-7 12c-5-2-26-12-47-22l-39-17-21 5c-12 3-30 12-41 20l-20 14-3 102-4 102 10-6 9-5 5-90zm452 72c32-31 40-61 33-114l-5-40-27-24c-14-14-37-28-50-31l-25-6-35 6-35 7-27 25-27 25v53l-1 53 13 24c18 33 47 46 108 48l51 1 27-27zm145-177 13-16h65l22 19 22 19 9 33c6 19 10 57 10 86v52l10 6 10 6V626c0-64-3-116-6-116-4 0-13 8-21 18l-14 17-5-12c-3-7-21-17-40-23l-35-12-28 12-28 11-12 25-11 25v156l8 7 7 8 5-95 5-94 14-17zm342 187 14-17-15 6c-8 3-24 8-36 12l-20 6-18-13-19-14 7-24 6-24 45-27 45-27v-78l-25-11c-32-15-48-15-79-1l-25 12 5 9 6 9 13-11 14-11 27 3 27 3 10 16 10 16-7 26-6 26-23 6c-12 4-32 17-44 28l-23 20v24c0 13 6 30 13 38l12 14 36 1h37l13-17zm-1321 444c-14-6-32-18-40-26l-15-15v-102l27-27 27-27h84l29 32 28 32v86h-9c-5 0-12 8-15 18l-6 18-33 12c-40 14-44 14-77-1zm-568 3c-34-14-62-44-71-76l-8-30 16-37 16-37h12c7 0 13-4 13-10v-10h90v10c0 6 5 10 11 10 7 0 18 8 25 18l13 17 1 50v51l-21 17c-17 15-65 39-72 36-1 0-12-4-25-9zM700 718c-29-11-45-28-57-63l-10-30 10-30c5-16 19-40 30-52l20-23h41l41 1 23 18 22 19v16c0 9 5 16 10 16h10v60h-20v37l-17 15c-22 19-73 27-103 16zm1383-3-29-12-17-26-17-26v-26c0-31 16-64 43-87l20-18h76l25 25 25 25 6 34 7 34-15 29c-19 37-35 49-69 55l-26 5-29-12z"/></g><g fill="#7d7d7d" transform="matrix(.1 0 0 -.1 0 300)"><path d="M0 1500V0h3000v3000H0V1500zm920 1100v-10h131l15-15 15-15h49v-9c0-5 11-12 25-15 14-4 25-11 25-16 0-6 7-10 15-10h16l5-15c4-8 10-15 16-15 13 0 38-26 38-39v-11h48l6-24 6-25 20-6 19-6 6-19 6-19 19-6 20-6 6-25c3-13 11-24 16-24s29-19 53-42c25-24 50-49 57-55 7-7 19-18 26-25 12-13 63-64 82-83 6-5 23-22 38-38 98-99 107-107 122-107 5 0 10-5 10-11s14-24 30-41c17-16 30-34 30-39s11-11 25-15l25-6v-28h15c8 0 15-4 15-10v-10h48l4-12 5-13 91-3 92-4v32h80v15c0 8 5 15 11 15 14 0 39 25 39 39v11h30v15c0 8 4 15 10 15 5 0 12 11 16 25 3 14 10 25 15 25h9v220h-20v50h-30v50h-30v30h-15c-8 0-15 4-15 10 0 5-11 12-25 16-14 3-25 10-25 15v9h-27c-16 1-39 7-53 15l-25 14-37 1h-36l-4-11-3-10-43-6c-23-3-42-9-42-13s-11-11-25-14c-14-4-25-11-25-16 0-6-7-10-15-10h-15v-11c0-14-25-39-39-39-6 0-11-7-11-15v-15h-30v-30h-50v30h-15c-8 0-15 5-15 11 0 14-25 39-39 39h-11v30h-15c-8 0-15 5-15 11 0 14-25 39-39 39h-11v30h15c8 0 15 5 15 11 0 14 25 39 39 39h11v30h11c13 0 39 25 39 38 0 5 11 13 25 16 14 4 25 11 25 16 0 6 7 10 15 10s15 4 15 9 14 12 30 16c17 4 30 11 30 16v9h50v30h160v20h50v-20h131l15-15 15-15h59v-10c0-5 11-12 25-16 14-3 25-10 25-15s7-9 15-9h15v-15c0-8 5-15 10-15 10 0 22-8 55-37 7-7 18-13 23-13s13-11 16-25c4-14 11-25 16-25 6 0 10-7 10-15v-15h30v-48l15-6 15-5v-51h17l7-40 6-40h20v-238l-11-4-11-4-5-47c-3-26-9-47-14-47-4 0-10-13-14-30s-11-30-16-30h-9v-50h-30v-11c0-14-55-69-69-69-6 0-11-4-11-10 0-5-9-19-20-30l-20-20h-40v-30h-15c-8 0-15-4-15-10v-10h-49l-15-15-15-15h-79l-4-12-4-12h-99l-98-1-5 13-4 12h-96l-6 15-5 15h-51v9c0 5-11 12-25 15-14 4-25 11-25 16 0 6-7 10-15 10h-15v30h-11c-6 0-24 13-40 29s-29 34-29 40-5 11-11 11-24 13-40 29-29 34-29 40-5 11-11 11-24 13-40 29-29 34-29 40-5 11-11 11-24 13-40 29-29 34-29 40v11h-30v15c0 8-5 15-11 15-14 0-149 135-149 149 0 6-5 11-11 11-14 0-69 55-69 69 0 6-5 11-11 11-14 0-69 55-69 69v11h-41l-22 24-22 23-50 6-49 5-4 11-4 11h-78v-20l-40-6-40-7v-17h-50v-30h-11c-14 0-69-55-69-69v-11h-30v-81l-16-17-16-16 5-50 4-50 12-4 11-4v-78h9c5 0 13-10 17-22 9-29 53-73 82-82 12-4 22-12 22-17v-9h51l15-15 15-15h160l5 15 6 15h48v9c0 5 11 12 25 15 14 4 25 11 25 16 0 6 7 10 15 10h15v30h30v11c0 14 25 39 39 39 6 0 11 7 11 15v15h50v-30h11c14 0 69-55 69-69 0-6 5-11 11-11s25-14 42-32l32-31-13-5c-6-2-12-10-12-18v-14h-30v-30h-30v-30h-11c-13 0-39-25-39-38 0-5-11-13-25-16-14-4-25-11-25-16 0-6-7-10-15-10h-15v-30h-50v-9c0-5-13-12-30-16-16-4-30-11-30-16v-9h-78l-4-11-4-12-104-1-103-1-5 13-4 12h-98v30h-50v9c0 5-11 12-25 15-14 4-25 11-25 16 0 6-5 10-10 10-6 0-21 11-33 24s-32 26-44 30l-23 7-6 25c-3 13-10 24-15 24s-9 7-9 15v15h-30v15c0 8-4 15-10 15-5 0-12 11-16 25-3 14-10 25-15 25h-9v49l-15 15-15 15v131h-20v80h20v128l15 6 15 5v51h20v50h30v50h15c8 0 15 4 15 10 0 13 86 100 99 100h11v30h50v30h50v20h60v30h160v20h50v-10zM648 1122l2-162h-30v332l13-4 12-5 3-161zm886 152c3-9 6-83 6-165V960h-14c-8 0-17 4-20 9l-6 9-30-11c-17-6-30-15-30-19 0-14-50-9-82 8-18 9-40 26-50 38l-17 21-1 58v59l31 31 31 31h52l52 1 19-18 18-18 8 13c5 7 9 37 9 66v52h9c5 0 12-7 15-16zm-1004-96c20-13 28-38 11-38-5 0-22 7-37 15l-29 15h-63l-31-26-31-26v-91l32-29 32-28h71l25 20c30 24 40 25 40 5v-15l-40-20c-48-24-63-25-117-3l-41 18-16 26-16 27v88l17 24c26 38 38 48 64 53 35 8 106-1 129-15zm354 7 32-15 17-29 17-29v-74l-15-31-15-32-43-17c-23-10-47-18-54-18-14 0-73 31-88 45-5 6-16 21-22 33l-13 22v80h10c6 0 10 6 10 13 0 8 10 23 23 34 37 35 91 41 141 18zm156-85v-89l22-21 22-20h49l29 32 28 32v156h30V960h-30v31l-27-19c-16-10-36-22-47-25l-18-7-38 21-38 22-6 30c-3 16-6 63-6 103v74h30v-90zm220-316v-44h19c11 0 23-4 26-10l6-10h-51V520h15c8 0 15-4 15-10v-10h-48l-6 16c-3 9-6 56-6 106v90l-20 5c-23 6-27 23-5 23h15l5 25c3 14 7 36 10 50l6 26 9-6 10-6v-45zm128 28 3-22h-20c-11 0-23 5-26 10l-7 11 13 15c16 19 33 13 37-14zm-858-84c11-7 20-18 20-25v-13h-14c-7 0-19 7-26 15l-12 15h-97l-26-27-25-28v-88l32-29 32-28h65l35 21 36 21v-38l-33-12c-18-7-51-12-73-12h-40l-26 12c-15 7-34 25-42 39l-16 27v88l17 24c30 45 69 61 130 55 24-3 52-10 63-17zm291-14 29-28v-16c0-9 5-21 11-27l12-12-17-42-17-43-27-23-27-23H682l-30 31-30 31-6 31c-3 17-3 45 0 63l6 32 27 25c38 33 49 37 99 33l44-4 29-28zm284 12c8-8 15-24 15-35v-21h20V512l-15-6-16-6-4 13c-2 6-5 52-8 100l-4 89-14 9c-8 5-27 9-44 9l-30-1-17-13c-10-7-18-18-18-25 0-6-4-11-10-11h-10V510h-30v230h14c8 0 16-5 18-10l3-11 35 16 35 15 33-4 32-5 15-15zm531-7 24-22V498l-12 4-13 5-5 90-5 90-14 17-13 16h-75l-15-17c-8-10-20-33-27-52l-11-34V499l-10 6-10 6v115c0 63 3 114 6 114 4 0 12-7 19-16l11-16 15 14c22 22 41 28 78 23l34-4 23-22zm544 12 35-18 12-24 13-24v-87l-17-29-17-29h-13c-7 0-13-4-13-10v-10h-96l-26 12-27 13-17 29-17 29v36l-1 36 14 30 15 30 35 17c45 23 77 23 120-1zm494 9c14-5 26-14 26-20v-10l-45 7-45 6-6-18-7-18 10-15c5-9 27-26 49-38l39-22 3-42 3-42-18-14-18-13-36-1h-37l-12 15-13 15 7 7 7 7 19-12c28-17 44-15 64 7l18 20-6 19-7 20-30 12c-32 14-69 54-69 77 0 18 45 63 64 63 8 0 26-4 40-10zM1380 626V511l-9-5-9-6-6 16c-8 21-8 209 1 217 3 4 10 7 15 7h8V626zm380 22v-91l17-19 16-18h44l25 19 24 20 12 39c7 22 12 62 12 91v51h20V511l-10-6-10-6v28l-25-5c-14-2-25-8-25-13v-9h-35c-19 0-45 5-59 11l-24 11-11 44c-12 47-15 157-4 167 3 4 12 7 20 7h13v-92zm570 7v-86l25-24 24-25h41l30 27 30 26v167h30V501l-15 5-15 6v33l-8-11c-12-19-50-34-84-34l-33 1-18 13-18 14-9 33c-6 19-10 67-10 106v73h30v-85zm-960 508c-8-3-23-14-33-25l-18-19-6-33-5-34 18-31 18-31h13c7 0 13-4 13-10v-10h61l24 16 25 16 16 34 16 34-13 33c-7 17-19 38-26 45l-14 14-37 4c-20 2-44 1-52-3zm-580 0c-22-9-39-29-50-57l-10-26 6-29 6-30 29-25 29-26h56l32 28 32 29v90l-24 22-23 22-34 4c-19 2-41 2-49-2zM674 693c-45-48-44-100 2-146l27-27h31l31 1 26 22 26 22 6 25c4 14 4 41 1 61l-6 36-28 16-28 17h-63l-25-27zm1383 2-27-26v-47c0-26 4-52 8-57 14-20 62-45 86-45h24l31 26 31 26v97l-25 26-26 25h-74l-28-25z"/></g><g fill="#424242" transform="matrix(.1 0 0 -.1 0 300)"><path d="M0 1500V0h3000v3000H0V1500zm948 1099 4-9h126l6-15 5-15h51v-9c0-5 11-12 25-15 14-4 25-11 25-16 0-6 7-10 15-10s15-4 15-10c0-5 11-12 25-16 14-3 25-11 25-16 0-13 26-38 39-38 6 0 11-7 11-15v-15h30v-15c0-8 5-15 11-15 14 0 39-25 39-39v-11h30v-15c0-8 5-15 11-15s17-6 25-14 14-19 14-25 7-11 15-11h15v-15c0-8 4-15 10-15 5 0 34-25 65-55 30-31 55-60 55-65 0-6 7-10 15-10h15v-30h11c14 0 39-25 39-39 0-6 7-11 15-11h15v-30h11c6 0 24-13 40-29s29-34 29-40 5-11 11-11c14 0 69-55 69-69v-11h15c8 0 15-4 15-10 0-5 7-10 15-10h15v-30h78l4-12 4-11 57-5 57-4 25 16c13 9 33 16 45 16 11 0 20 4 20 9s11 12 25 15c14 4 25 11 25 16 0 6 7 10 15 10h15v30h30v50h9c5 0 12 11 15 25 4 14 11 25 16 25h10v190h-9c-5 0-12 14-16 30-4 17-11 30-16 30s-9 5-9 11c0 13-55 69-68 69-5 0-12 7-16 15l-5 15h-39l-4 11-4 12-117-1h-117l-16-16c-8-9-20-16-25-16s-31-22-58-50c-27-27-54-50-60-50h-11v-30h-50v30h-11c-6 0-24 13-40 29s-29 34-29 40-5 11-11 11c-11 0-69 54-69 65 0 10 139 145 150 145 5 0 10 7 10 15v15h50v30h50v9c0 5 14 12 30 16 17 4 30 11 30 16v9h108l4 12 4 12h138l4-12 4-12h106l6-15 5-15h51v-20h50v-30h15c8 0 15-4 15-9s10-13 23-17c12-4 32-17 44-30s27-24 33-24c5 0 10-5 10-11 0-7 11-22 25-35l25-23v-41h10c5 0 12-11 16-25 3-14 10-25 14-25s10-18 14-40l6-40h20v-300h-20l-6-40-7-40h-17v-50h-30v-41l-25-23c-14-13-25-28-25-35v-11h-30v-30h-11c-14 0-39-25-39-39 0-6-7-11-15-11s-15-4-15-10c0-5-11-12-25-16-14-3-25-10-25-14 0-5-13-11-30-15-16-4-30-11-30-16v-9h-78l-4-12-5-13h-256l-4 13-5 12h-78v10c0 5-11 12-25 16-14 3-25 10-25 15v9h-50v30h-15c-8 0-15 5-15 10 0 6-6 10-14 10-18 0-62 42-71 68l-6 22h-15c-8 0-23 9-33 19s-22 28-26 40l-6 21h-29l-65 66c-36 36-65 70-65 76 0 12-26 38-38 38-6 0-40 29-76 65l-66 65v30h-14c-13 0-66 44-66 55 0 8-27 35-34 35-4 0-28 22-55 49s-58 52-70 56c-11 3-21 10-21 14v9l-57 6c-73 8-77 8-140 0-29-4-53-10-53-14s-11-11-25-14c-14-4-25-11-25-16 0-6-7-10-15-10h-15v-30h-30v-15c0-8-4-15-9-15s-12-11-15-25c-4-14-11-25-16-25h-10v-80h-20v-80h20v-80h10c6 0 10-6 10-14s6-21 14-28c7-8 16-24 20-35l7-22 22-7c12-4 32-17 44-30l22-24h59l4-11 4-11 45-5 45-5 38 16c21 9 49 16 62 16h24v30h40l64 65 64 65h42v-10c0-5 7-10 15-10h15v-30h30v-11c0-6 13-24 29-40s34-29 40-29h11v-15c0-8 5-15 10-15 18 0 10-21-19-51-16-16-34-29-40-29s-11-5-11-11c0-13-87-99-100-99-6 0-10-4-10-10 0-5-11-12-25-16-14-3-25-10-25-15v-9h-50v-30h-78l-4-12-5-13-120-3-120-4-16 16-16 16h-71v20l-40 6-40 7v8c0 5-7 9-15 9h-15v30h-15c-8 0-15 4-15 10 0 5-11 12-25 16-14 3-25 11-25 16 0 13-26 38-39 38h-11v50h-30v14c0 8-7 16-15 20l-15 5v41h-20v19c0 11-7 26-15 35l-15 15v99l-12 4-13 5v166l13 5 12 4v88h19l7 35c3 19 10 35 15 35s9 9 9 19c0 11 7 26 15 35 8 8 15 19 15 25v11h30v11c0 14 25 39 39 39 6 0 11 7 11 15v15h11c7 0 22 11 35 25s28 25 34 25c5 0 10 4 10 10 0 5 11 12 25 16 14 3 25 10 25 15v9h49l15 15 15 15h101v19l33 4c41 5 101-3 105-14zM648 1123l-3-168h-30l-3 155c-1 85 0 160 2 167 3 7 12 13 21 13h15l-2-167zm892 3V961l-10-6-9-6-19 12-19 12-24-16-23-17h-63l-40 29-40 29-7 36-7 36 6 33c4 17 14 42 24 53 34 42 112 68 137 45 5-5 19-12 32-16l22-6v111h40v-164zm-1038 70c19-8 41-22 48-31l13-16-9-9-9-9-40 19c-61 29-92 23-142-26l-13-13v-63l17-29 17-29h13c7 0 22-5 33-12l19-12 50 27 50 27 6-9c10-16-5-36-41-53l-35-18h-75l-24 17c-38 26-58 52-65 85l-7 30 6 32 6 33 26 24c50 47 99 58 156 35zm375-1c39-19 58-42 74-87l13-38-13-37c-15-40-22-49-61-76l-24-17h-67l-29 15c-16 8-38 28-49 44l-21 29v42c0 60 26 101 80 127 34 16 62 16 97-2zm163-75v-79l11-25 11-24 21-6c11-3 32-3 47 0l26 6 17 31 17 32 2 69 3 69 13 5 12 4V950h-14c-8 0-16 6-19 13l-5 12-32-17c-17-10-40-18-50-18s-32 8-49 18l-31 17v17c0 9-4 20-10 23l-10 6v167l13 5c6 3 15 6 20 6l7 1v-80zm220-324v-45l22-3c12-2 23-9 26-15l4-13h-52V528l20-5 21-6-4-11c-2-6-11-13-21-14l-17-4-20 18-19 17v197h-30v30h30v90h40v-44zm130 19v-25h-50v50h50v-25zm-846-94 25-23-12-13-12-13-5 8c-10 15-70 40-98 40h-28l-32-28-32-29v-82l37-30 38-31h17c9 0 37 11 62 25l44 25 5-13c6-18-3-37-19-37-8 0-14-4-14-9s-16-12-35-15l-35-7-33 6-34 7-26 22c-31 27-47 65-47 111v33l27 32c14 18 36 36 47 41l21 9 57-3 58-3 24-23zm256 16 25-12 22-40c36-63 26-111-32-165l-27-25H685l-32 29-32 29-12 35-11 35 13 39 13 40 35 24 36 24h80l25-13zm298-3c12-8 22-22 22-30s5-14 10-14h10V500h-40v165l-13 25-12 25-36 3-35 3-20-22-19-21-5-86-5-87-17-3-18-3v241h13c7 0 18-5 25-12l12-12v11c0 14 22 20 70 22l36 1 22-16zm290-113-3-116-17-3-18-3v119c0 65 3 121 6 125 3 3 12 3 20 0l15-5-3-117zm122 116c14 7 41 13 61 13h36l27-21 26-20V499l-17 3-18 3-5 98-5 98-15 9c-8 5-26 10-40 10l-25-1-24-20-24-20-6-87-6-87h-30l-3 114-3 114 13 9 13 8 10-13 10-13 25 13zm252-89 3-91 26-19 25-19 32 18c39 22 42 30 49 118 2 39 6 76 8 82l4 13 16-6 15-6V500h-13c-7 0-18 5-23 10l-10 10-37-15-37-15-27 7c-31 7-44 18-61 50l-12 22v84c0 88 3 99 26 90l13-5 3-90zm445 74c10-10 24-28 31-40l12-22-1-37v-38l-17-29-17-29-35-19-35-19-37 4-37 5-31 22-30 21v15c0 8-4 14-10 14h-10v90l13 22c33 57 57 69 134 63l51-3 19-20zm138-159 7-23h13c7 0 15-6 18-12l4-13 35 18 36 19 11 24 11 25v139h30V500h-15c-8 0-15 5-15 10 0 14-27 13-32-1l-4-11-41-2-41-1-25 14-25 13-6 30c-3 17-6 66-6 108v78l13 5 12 4 6-81c3-45 9-91 14-103zm333 181 22-6v-38h-10c-6 0-19 6-30 12l-20 13-18-11c-9-6-18-18-20-26l-3-14 36-19c19-11 35-23 35-27 0-5 6-8 14-8h14l7-28 6-29-10-26-11-27-27-11-27-10-24 6c-30 7-50 26-44 43 5 16 22 15 43-4l17-15 21 13 22 13-3 23-3 23-30 17c-40 23-51 34-60 61l-7 22 6 24 6 24 18 4c26 7 55 7 80 1zm-1297 419c-8-3-25-16-38-29l-23-23v-38l1-38 14-19c8-10 26-25 41-32l27-14 32 11 33 12 17 29 17 29-7 39-6 38-18 16c-20 18-69 28-90 19zm-593-9c-34-18-48-43-48-87v-34l18-19c9-11 29-25 44-31l27-12 29 15c17 8 37 25 46 39l16 24v57l-21 23c-19 20-60 42-77 41-4-1-19-7-34-16zM688 706c-10-7-18-18-18-24s-6-12-12-14l-13-5 1-41 1-42 26-24c15-14 35-27 46-31l20-6 23 12c13 6 31 18 41 27l17 15v93l-28 27-28 27h-30l-29-1-17-13zm1373-17-31-31v-28c0-16 5-40 11-53l11-23 33-18 33-18 30 13 30 13 16 27 16 27v65l-30 28-30 29h-58l-31-31z"/></g><g fill="#060606" transform="matrix(.1 0 0 -.1 0 300)"><path d="M0 1500V0h3000v3000H0V1500zm994 1105 15-15h81v-20h41l5-15 6-15h47l15-15c8-8 17-15 21-15 3 0 16-11 29-25s28-25 35-25h11v-30h30v-11c0-14 25-39 39-39 6 0 11-7 11-15v-15h30v-11c0-14 25-39 39-39 6 0 11-7 11-15v-15h15c8 0 15-5 15-11 0-14 25-39 39-39h11v-30h15c8 0 15-5 15-11 0-14 25-39 39-39h11v-30h15c8 0 15-5 15-11 0-14 25-39 39-39h11v-30h15c8 0 15-5 15-11 0-14 25-39 39-39h11v-30h30v-15c0-8 5-15 11-15 14 0 39-25 39-39v-11h30v-15c0-8 5-15 11-15 14 0 39-25 39-39v-11h50v-28l48-6c26-2 64-8 85-12l37-6v22h100v30h15c8 0 15 4 15 10 0 5 11 12 24 16l24 6 18 39c11 21 22 39 27 39 4 0 7 11 7 25v25h30v151l-15 15-15 15v49h-10c-5 0-10 7-10 15v15h-30v30h-30v11c0 17-27 39-50 39h-21l-5 15-6 15h-208v-10c0-5-11-12-25-16-14-3-25-10-25-15s-7-9-15-9h-15v-30h-11c-6 0-24-13-41-30-16-16-33-30-38-30s-12-9-15-20l-6-20h-37l-86 85-86 85v49l66 65c37 36 72 66 78 66s20 11 30 25l19 25h23c13 0 24 4 24 8 0 12 73 42 104 42h27l15 15 15 15h210l5-15 6-15h78v-20h49l13-13c7-8 26-17 41-21 15-3 27-11 27-16 0-6 5-10 11-10 14 0 39-25 39-39v-11h30v-30h30v-15c0-8 5-15 11-15 17 0 39-27 39-49v-21h10c6 0 14-8 17-17 4-10 13-24 20-31l13-13v-79h20v-78l11-4 11-4 5-45 5-45-16-38c-9-21-16-54-16-72v-34h-20v-59l-15-15c-8-8-15-24-15-36v-21l-15-5c-8-4-15-10-15-16 0-13-26-38-39-38-6 0-11-6-11-14 0-20-79-96-100-96-5 0-10-7-10-15v-15h-15c-8 0-15-4-15-9s-13-12-30-16c-16-4-30-11-30-16v-9h-70v-30h-321l-5 15-6 15h-68v9c0 5-13 12-30 16-16 4-30 11-30 16s-7 9-15 9h-15v30h-50v30h-11c-14 0-39 25-39 39 0 6-7 11-15 11h-15v30h-11c-14 0-39 25-39 39v11h-30v30h-15c-8 0-15 5-15 11 0 14-25 39-39 39-6 0-11 7-11 15v15h-11c-14 0-39 25-39 39v11h-30v30h-11c-6 0-24 13-40 29s-29 34-29 40-5 11-11 11-24 13-40 29-29 34-29 40-5 11-11 11c-14 0-69 55-69 69v11h-30v30h-11c-14 0-39 25-39 39 0 6-7 11-15 11h-15v30h-15c-8 0-15 5-15 10v10h-50v30H780v-10c0-5-11-12-25-16-14-3-25-10-25-15s-6-9-13-9c-20 0-53-31-61-57-4-13-11-23-16-23-4 0-11-11-14-25-4-14-11-25-16-25h-10v-220h30v-39l45-46 46-45h39v-30h80v-20h80v20h91l23 25c13 14 27 25 32 25 12 0 44 37 44 50 0 6 5 10 11 10 7 0 26 16 45 35l33 35h41v-10c0-5 7-10 15-10h15v-11c0-13 25-39 38-39 5 0 13-11 16-25 4-14 10-25 15-25 15 0 71-60 71-75 0-16-27-45-41-45-15 0-35-23-43-48l-7-22-25-6c-13-3-24-11-24-16 0-13-26-38-39-38h-11v-30h-48l-6-15-5-15h-51v-20h-48l-4-12-5-13-160-3-160-3-16 15-16 16h-51v9c0 5-11 12-25 15-14 4-25 11-25 16v10h-50v30h-11c-14 0-99 85-99 99v11h-30v15c0 8-4 15-10 15-5 0-12 11-16 25-3 14-10 25-14 25-5 0-11 14-15 30-4 17-11 30-16 30h-9v68l-12 4-13 5v286l13 5 12 4v48h17l7 40 6 40h10c6 0 10 7 10 15v15h30v50h30v30h15c8 0 15 5 15 11 0 15 22 35 48 43 12 4 22 12 22 17s7 9 15 9h15v30h50v9c0 5 14 12 30 16 17 4 30 11 30 16v9h80v9c0 14 27 19 127 20l92 1 15-15zM657 1130l3-165-10-15-9-15-18 11-18 11-3 163-3 164 13 8c7 4 20 7 28 5l15-2 2-165zm887 148c8-30 8-302 0-322l-6-16h-37l-9 16-9 15-12-15-13-16h-101l-34 26-33 25v19c0 10-4 22-10 25l-10 6v68l10 6c6 3 10 13 10 21 0 16 29 47 59 63l20 11h90l6-10c3-5 10-10 16-10h9v48c0 53 4 62 31 62h17l6-22zm-1025-82c15-8 33-22 41-31l13-16-15-15-15-15-34 20c-39 24-60 26-104 10l-31-11-12-26c-7-14-12-36-12-49v-23h10c6 0 10-6 10-14v-14l35-16 34-17 28 7c15 4 37 13 49 21l21 13 17-6c27-10 18-28-26-57l-27-17H384l-39 40-40 41v104l30 31c17 17 39 36 50 42l20 11 43 1h43l28-14zm364 3c12-6 34-26 49-43l28-31v-100l-36-42-36-43H770l-35 36-35 36v121l39 39 39 38h42c23 0 51-5 63-11zm161-5c3-9 6-46 7-82 1-37 4-78 8-92l7-25 37-3 37-3 14 14c21 20 36 84 36 150v57h14c21 0 26-23 26-135s-5-135-26-135h-14v15c0 19-9 19-34 0l-20-15h-76l-30 31-30 32v97c0 53 3 100 7 103 11 12 31 7 37-9zm220-370c3-9 6-25 6-37v-22l22-10c12-6 23-16 26-22l4-13-25-9-25-10-4-80-3-81h8c12 0 37-27 37-39 0-5-8-12-19-16l-19-6-26 12-26 12v207h-12c-7 0-19 4-27 9l-14 9 16 16c8 9 20 16 26 16h11v80h38l6-16zm129 4c2-7 2-19-1-25l-4-13h-48v50h48l5-12zm-876-83c17-9 37-22 44-31l12-15-16-16-16-17-18 15c-10 8-30 20-45 27l-27 11-38-15-38-15-13-27c-6-14-12-32-12-39 0-17 21-54 40-70l15-12 46-1h47l12 15c7 8 21 15 32 15h19l6-16 6-17-24-18c-13-10-43-23-65-29l-42-12-36 13c-20 7-50 26-66 42l-29 28-6 30-7 29 7 32 7 31 23 25c12 13 33 30 46 37l24 13 41 1 41 1 30-15zm275 3c28-17 40-27 61-58l17-24v-95l-15-15c-8-8-15-19-15-24 0-12-83-52-108-52s-108 54-121 79c-6 11-11 38-11 61v41l11 22c13 24 34 45 65 64l19 12h38l37 1 22-12zm317-19 31-31V499l-22 3-23 3-3 90-2 90-21 18c-29 24-42 22-78-12l-31-29V500h-40v250h40v-31l22 21 22 20h74l31-31zm281-105V500h-50v248l13 5c6 2 18 2 25-1l12-4V624zm130 124 20 12h70v-8c0-4 10-12 23-17l22-10 3-112 3-113h-41v78c0 93-5 114-31 131l-20 12-30-13-29-13v-12c0-7-4-13-10-13h-9l-3-82-3-83-22-3-23-3v249l13 5c6 2 20-1 30-7l17-11 20 13zm240-89v-89h10c6 0 10-7 10-15v-15h76l17 20 17 20v158l13 11 14 11 17-13 17-12-3-115-3-115-27-3-28-3v26l-8-12-8-13-45-6-44-6-35 31-35 30-4 91-3 91 12 14 11 14 15-6 14-5v-89zm418 87c15-8 37-26 50-40l22-26V564l-27-30-28-29-37-13-38-13-37 13-38 13-27 29-28 30-1 25c-1 14-1 41 0 59l3 34 16 20c10 11 31 29 47 39l30 19h66l27-14zm174-107 3-94 35-2 35-3 15 13c8 7 21 22 28 35l12 22v138l14 5 14 6 6-15c3-9 6-67 6-130V500h-38l-5 13-5 12-11-15-10-15h-107l-15 15c-8 8-20 28-27 43l-12 28v158l17 9 17 10 12-13 13-13 3-93zm336 101 21-20-5-15-6-14-34 14-35 14-6-16-6-16 10-15c5-9 18-20 29-26 10-6 29-22 41-36l23-25v-20c0-24-27-59-58-74l-23-12-34 12-35 13-6 19-6 19 11 11 11 11 12-12 12-12h54l6 16 6 15-26 24c-15 14-34 27-44 30l-17 5-11 26c-7 14-12 32-12 41v16l28 23 27 24h51l22-20zm-1320 409-26-10-11-31c-16-45-14-60 15-93l25-30 38 1 38 1 22 22 21 21v83l-26 23-25 24-22-1c-12 0-34-5-49-10zm-568 4c-28-10-49-35-55-65l-7-30 18-34 19-34 25-2h45l20 2 28 32c32 38 33 46 10 87l-18 30-23 10c-25 12-38 13-62 4zM693 698l-22-11-11-33-11-34 6-22c4-13 14-31 23-40l15-18h41l41 1 23 18 22 19v85l-26 23-25 24-27-1c-15 0-37-5-49-11zm1401 7c-29-14-50-37-58-62l-7-20 11-28c6-16 18-34 28-41l17-13 37-1h37l13 15c33 36 38 46 38 69v25l-15 15c-8 8-15 18-15 23 0 4-15 13-33 18l-32 11-21-11z"/></g></g></svg>