<?xml version="1.0" encoding="UTF-8"?>
<svg version="1.2" xmlns="http://www.w3.org/2000/svg" width="100" height="104" baseProfile="full">
<path d="M0 0 C0.91652344 0.48597656 1.83304687 0.97195312 2.77734375 1.47265625 C15.0944431 8.61961513 22.44602303 18.92429209 27.13671875 32.22265625 C29.75178542 43.66505204 29.60242862 57.54562386 24 68 C23.57589844 68.84433594 23.15179688 69.68867187 22.71484375 70.55859375 C16.00232185 82.84306977 5.43721564 91.32994262 -7.89453125 95.45703125 C-21.34273442 98.92512075 -34.90699802 97.54519495 -47.125 90.9375 C-59.17383274 83.35585851 -67.45119031 72.77695707 -71.57861328 59.07983398 C-73.80724144 48.08001746 -73.5105427 33.87035442 -68 24 C-67.47921875 23.06027344 -66.9584375 22.12054687 -66.421875 21.15234375 C-59.31412166 9.25806283 -49.75037295 1.60390579 -36.734375 -3.20703125 C-25.11493049 -5.67434007 -10.54873847 -5.85654838 0 0 Z " fill="#44AFFC" transform="translate(72,4)"/>
<path d="M0 0 C1.58206057 0.00667536 3.16410534 0.0186375 4.74609375 0.03515625 C5.55240234 0.03966797 6.35871094 0.04417969 7.18945312 0.04882812 C9.18753131 0.06065107 11.18557158 0.07858711 13.18359375 0.09765625 C13.84359375 2.40765625 14.50359375 4.71765625 15.18359375 7.09765625 C15.84359375 5.77765625 16.50359375 4.45765625 17.18359375 3.09765625 C18.56749217 11.22805946 19.30408282 17.68077593 15.18359375 25.09765625 C14.47601049 28.33435255 14.47601049 28.33435255 14.18359375 31.09765625 C14.84359375 31.09765625 15.50359375 31.09765625 16.18359375 31.09765625 C16.67859375 33.07765625 16.67859375 33.07765625 17.18359375 35.09765625 C17.96734375 35.13890625 18.75109375 35.18015625 19.55859375 35.22265625 C25.27046266 36.60138323 30.72140733 39.56611247 34.84765625 43.80859375 C38.05706296 49.30775261 39.05646712 55.81124442 39.18359375 62.09765625 C37.37198345 65.79937996 34.76641906 67.22169314 31.18359375 69.09765625 C30.22710937 69.64808594 29.270625 70.19851562 28.28515625 70.765625 C15.27880069 77.80376856 1.50205964 79.26751409 -12.859375 75.2109375 C-18.2655995 73.17556896 -23.04190567 70.32152598 -27.81640625 67.09765625 C-28.44289063 66.69675781 -29.069375 66.29585938 -29.71484375 65.8828125 C-31.12890625 64.78515625 -31.12890625 64.78515625 -32.81640625 62.09765625 C-33.52115919 54.77906803 -30.85133489 46.66851762 -27.81640625 40.09765625 C-22.81757955 34.19740179 -16.03928372 32.96769481 -8.69921875 31.625 C-6.59290103 31.20094714 -6.59290103 31.20094714 -4.81640625 29.09765625 C-4.79264699 27.10449955 -4.79264699 27.10449955 -5.19140625 24.97265625 C-5.39765625 23.69390625 -5.60390625 22.41515625 -5.81640625 21.09765625 C-6.80640625 20.76765625 -7.79640625 20.43765625 -8.81640625 20.09765625 C-8.81640625 16.79765625 -8.81640625 13.49765625 -8.81640625 10.09765625 C-8.48640625 11.08765625 -8.15640625 12.07765625 -7.81640625 13.09765625 C-7.15640625 13.09765625 -6.49640625 13.09765625 -5.81640625 13.09765625 C-5.72552734 11.81568359 -5.72552734 11.81568359 -5.6328125 10.5078125 C-5.54902344 9.40308594 -5.46523438 8.29835938 -5.37890625 7.16015625 C-5.29769531 6.05800781 -5.21648438 4.95585937 -5.1328125 3.8203125 C-4.64322641 -0.39254561 -4.46693338 0.11430229 0 0 Z " fill="#E8E9EA" transform="translate(46.81640625,23.90234375)"/>
<path d="M0 0 C1.58206057 0.00667536 3.16410534 0.0186375 4.74609375 0.03515625 C5.55240234 0.03966797 6.35871094 0.04417969 7.18945312 0.04882812 C9.18753131 0.06065107 11.18557158 0.07858711 13.18359375 0.09765625 C13.84359375 2.40765625 14.50359375 4.71765625 15.18359375 7.09765625 C15.84359375 5.77765625 16.50359375 4.45765625 17.18359375 3.09765625 C18.56749217 11.22805946 19.30408282 17.68077593 15.18359375 25.09765625 C14.47601049 28.33435255 14.47601049 28.33435255 14.18359375 31.09765625 C14.84359375 31.09765625 15.50359375 31.09765625 16.18359375 31.09765625 C15.67647342 34.81653864 15.0675116 37.83219864 13.18359375 41.09765625 C13.84359375 41.09765625 14.50359375 41.09765625 15.18359375 41.09765625 C15.18359375 42.41765625 15.18359375 43.73765625 15.18359375 45.09765625 C3.46571666 45.09765625 3.46571666 45.09765625 -0.421875 41.57421875 C-3.92834061 37.86149045 -4.97409814 34.45816906 -4.94140625 29.47265625 C-4.90273438 28.73789062 -4.8640625 28.003125 -4.82421875 27.24609375 C-4.81591547 24.96269244 -4.98778956 23.22971493 -5.81640625 21.09765625 C-6.80640625 20.76765625 -7.79640625 20.43765625 -8.81640625 20.09765625 C-8.81640625 16.79765625 -8.81640625 13.49765625 -8.81640625 10.09765625 C-8.48640625 11.08765625 -8.15640625 12.07765625 -7.81640625 13.09765625 C-7.15640625 13.09765625 -6.49640625 13.09765625 -5.81640625 13.09765625 C-5.75582031 12.24300781 -5.69523437 11.38835938 -5.6328125 10.5078125 C-5.50712891 8.85072266 -5.50712891 8.85072266 -5.37890625 7.16015625 C-5.29769531 6.05800781 -5.21648438 4.95585937 -5.1328125 3.8203125 C-4.64322641 -0.39254561 -4.46693338 0.11430229 0 0 Z " fill="#C1C1C1" transform="translate(46.81640625,23.90234375)"/>
<path d="M0 0 C1.58206057 0.00667536 3.16410534 0.0186375 4.74609375 0.03515625 C5.55240234 0.03966797 6.35871094 0.04417969 7.18945312 0.04882812 C9.18753131 0.06065107 11.18557158 0.07858711 13.18359375 0.09765625 C13.84359375 2.40765625 14.50359375 4.71765625 15.18359375 7.09765625 C15.84359375 5.77765625 16.50359375 4.45765625 17.18359375 3.09765625 C19.77138481 18.30092875 19.77138481 18.30092875 15.18359375 25.09765625 C14.19359375 25.42765625 13.20359375 25.75765625 12.18359375 26.09765625 C12.18359375 25.43765625 12.18359375 24.77765625 12.18359375 24.09765625 C12.84359375 24.09765625 13.50359375 24.09765625 14.18359375 24.09765625 C13.58497633 21.74594494 12.91435023 19.41171845 12.18359375 17.09765625 C11.52359375 16.76765625 10.86359375 16.43765625 10.18359375 16.09765625 C11.17359375 17.74765625 12.16359375 19.39765625 13.18359375 21.09765625 C11.43359375 23.16015625 11.43359375 23.16015625 9.18359375 25.09765625 C7.12109375 24.78515625 7.12109375 24.78515625 5.18359375 24.09765625 C4.19359375 24.42765625 3.20359375 24.75765625 2.18359375 25.09765625 C1.85359375 24.10765625 1.52359375 23.11765625 1.18359375 22.09765625 C1.84359375 21.76765625 2.50359375 21.43765625 3.18359375 21.09765625 C3.18359375 20.43765625 3.18359375 19.77765625 3.18359375 19.09765625 C4.83359375 18.76765625 6.48359375 18.43765625 8.18359375 18.09765625 C6.53359375 18.09765625 4.88359375 18.09765625 3.18359375 18.09765625 C3.18359375 17.10765625 3.18359375 16.11765625 3.18359375 15.09765625 C0.21359375 14.60265625 0.21359375 14.60265625 -2.81640625 14.09765625 C-2.81640625 13.43765625 -2.81640625 12.77765625 -2.81640625 12.09765625 C-3.47640625 12.09765625 -4.13640625 12.09765625 -4.81640625 12.09765625 C-4.81640625 13.74765625 -4.81640625 15.39765625 -4.81640625 17.09765625 C-5.47640625 17.09765625 -6.13640625 17.09765625 -6.81640625 17.09765625 C-6.50908638 14.45112494 -6.19581303 11.80554125 -5.87890625 9.16015625 C-5.79189453 8.40541016 -5.70488281 7.65066406 -5.61523438 6.87304688 C-4.79793654 0.12277217 -4.79793654 0.12277217 0 0 Z " fill="#B4B4B4" transform="translate(46.81640625,23.90234375)"/>
<path d="M0 0 C3.48063836 2.45226794 5.44686659 4.86209551 6.75 8.9375 C6.5 12.875 6.5 12.875 5.75 15.9375 C3.75 13.9375 3.75 13.9375 2.75 7.9375 C-2.86 7.9375 -8.47 7.9375 -14.25 7.9375 C-14.91 11.8975 -15.57 15.8575 -16.25 19.9375 C-16.91 19.9375 -17.57 19.9375 -18.25 19.9375 C-20.11545796 8.65995868 -20.11545796 8.65995868 -18.05078125 4.55078125 C-12.87675634 -1.42502961 -7.50967006 -2.45508444 0 0 Z " fill="#040709" transform="translate(57.25,17.0625)"/>
<path d="M0 0 C0.55171875 0.30679688 1.1034375 0.61359375 1.671875 0.9296875 C4.20540121 2.09442941 6.51171762 2.62057956 9.25 3.125 C10.14203125 3.29257812 11.0340625 3.46015625 11.953125 3.6328125 C12.96632813 3.81457031 12.96632813 3.81457031 14 4 C14.04254356 5.99954746 14.04080783 8.00041636 14 10 C13.67 10.33 13.34 10.66 13 11 C15.475 11.99 15.475 11.99 18 13 C18 13.66 18 14.32 18 15 C7 15 7 15 5 14 C3.7109375 12.109375 3.7109375 12.109375 2.375 9.75 C1.92898437 8.98171875 1.48296875 8.2134375 1.0234375 7.421875 C-0.10346743 4.75515341 -0.19303612 2.86506237 0 0 Z " fill="#D0D0D0" transform="translate(44,54)"/>
<path d="M0 0 C5.875 3.875 5.875 3.875 7 5 C10.47256915 5.30867281 12.3872288 5.38701339 15.375 3.5 C15.91125 3.005 16.4475 2.51 17 2 C17.33 3.32 17.66 4.64 18 6 C18.66 6 19.32 6 20 6 C19.49287967 9.71888239 18.88391785 12.73454239 17 16 C17.66 16 18.32 16 19 16 C19 16.66 19 17.32 19 18 C17.02 17.67 15.04 17.34 13 17 C13.66 14.36 14.32 11.72 15 9 C14.31292969 8.95101562 13.62585937 8.90203125 12.91796875 8.8515625 C12.01691406 8.77679688 11.11585937 8.70203125 10.1875 8.625 C8.84751953 8.52058594 8.84751953 8.52058594 7.48046875 8.4140625 C5 8 5 8 2 6 C2.4794463 10.21912747 3.16625119 12.79663178 6 16 C5.67 16.66 5.34 17.32 5 18 C-1.01767016 10.77879581 -1.01767016 10.77879581 -0.9765625 6.640625 C-0.86054687 5.85171875 -0.74453125 5.0628125 -0.625 4.25 C-0.51414063 3.45078125 -0.40328125 2.6515625 -0.2890625 1.828125 C-0.19367187 1.22484375 -0.09828125 0.6215625 0 0 Z " fill="#A0A0A0" transform="translate(43,49)"/>
<path d="M0 0 C1.45599609 0.11021484 1.45599609 0.11021484 2.94140625 0.22265625 C5.4375 0.9375 5.4375 0.9375 6.77734375 2.80859375 C7.4375 4.9375 7.4375 4.9375 7.4375 7.9375 C1.33218757 10.51252973 -2.33089184 11.45666075 -8.5625 8.9375 C-8.92695169 3.47072462 -8.92695169 3.47072462 -7.3984375 1.234375 C-4.8092403 -0.59458983 -3.11808755 -0.29478591 0 0 Z " fill="#CDCDCD" transform="translate(52.5625,24.0625)"/>
<path d="M0 0 C3.63 0 7.26 0 11 0 C11.66 2.31 12.32 4.62 13 7 C13.66 5.68 14.32 4.36 15 3 C17.58779106 18.2032725 17.58779106 18.2032725 13 25 C12.01 25.33 11.02 25.66 10 26 C10 25.34 10 24.68 10 24 C10.66 24 11.32 24 12 24 C11.34 21.69 10.68 19.38 10 17 C9.01 17 8.02 17 7 17 C7 16.34 7 15.68 7 15 C8.32 14.34 9.64 13.68 11 13 C10.34 11.35 9.68 9.7 9 8 C9.66 8 10.32 8 11 8 C10.34 5.69 9.68 3.38 9 1 C6.03 1 3.06 1 0 1 C0 0.67 0 0.34 0 0 Z " fill="#A7AFB6" transform="translate(49,24)"/>
<path d="M0 0 C2.0625 0.4375 2.0625 0.4375 4 1 C3.34 1 2.68 1 2 1 C1.67 3.64 1.34 6.28 1 9 C3.31 9.33 5.62 9.66 8 10 C8.33 12.64 8.66 15.28 9 18 C8.34 18 7.68 18 7 18 C7 17.01 7 16.02 7 15 C4.03 14.505 4.03 14.505 1 14 C1 13.34 1 12.68 1 12 C0.34 12 -0.32 12 -1 12 C-1 13.65 -1 15.3 -1 17 C-1.66 17 -2.32 17 -3 17 C-2.69268013 14.35346869 -2.37940678 11.707885 -2.0625 9.0625 C-1.97548828 8.30775391 -1.88847656 7.55300781 -1.79882812 6.77539062 C-1.11328125 1.11328125 -1.11328125 1.11328125 0 0 Z " fill="#939393" transform="translate(43,24)"/>
<path d="M0 0 C0.66 1.32 1.32 2.64 2 4 C1.01 4.495 1.01 4.495 0 5 C0.33 5.99 0.66 6.98 1 8 C0.01 8.66 -0.98 9.32 -2 10 C-2.33 8.02 -2.66 6.04 -3 4 C-3.99 4.66 -4.98 5.32 -6 6 C-6 7.32 -6 8.64 -6 10 C-6.598125 9.67 -7.19625 9.34 -7.8125 9 C-11.38515361 7.36678692 -14.29183267 8.23935029 -18 9 C-18.66 9 -19.32 9 -20 9 C-20 8.34 -20 7.68 -20 7 C-14.30319816 4.55001841 -8.81969982 2.54254461 -2.71484375 1.39453125 C-0.9776745 1.15452891 -0.9776745 1.15452891 0 0 Z " fill="#D3D7DC" transform="translate(41,54)"/>
<path d="M0 0 C0.99 0.33 1.98 0.66 3 1 C3 1.66 3 2.32 3 3 C-0.3 2.34 -3.6 1.68 -7 1 C-7 1.66 -7 2.32 -7 3 C-7.99 3.33 -8.98 3.66 -10 4 C-10.77402909 7.75857371 -11.43839492 11.52626251 -12.0625 15.3125 C-12.32740234 16.91544922 -12.32740234 16.91544922 -12.59765625 18.55078125 C-12.73042969 19.35902344 -12.86320312 20.16726562 -13 21 C-13.66 21 -14.32 21 -15 21 C-16.86545796 9.72245868 -16.86545796 9.72245868 -14.80078125 5.61328125 C-10.32032086 0.43851222 -6.83622489 -0.46026069 0 0 Z " fill="#161110" transform="translate(54,16)"/>
<path d="M0 0 C1.32 0.66 2.64 1.32 4 2 C4.04254356 3.99954746 4.04080783 6.00041636 4 8 C3.67 8.33 3.34 8.66 3 9 C3 9.99 3 10.98 3 12 C0.56086737 14.53294542 -0.69970913 14.98267553 -4.25 15.1875 C-5.1575 15.125625 -6.065 15.06375 -7 15 C-6.875 12.6875 -6.875 12.6875 -6 10 C-1.13793103 7 -1.13793103 7 2 7 C1.42415568 4.61435923 0.77772405 2.33317216 0 0 Z " fill="#C5C5C5" transform="translate(57,40)"/>
<path d="M0 0 C2 3 2 3 2 7 C2.66 7 3.32 7 4 7 C4 5.35 4 3.7 4 2 C5.9078584 5.1749094 6.1609041 7.10585211 5.625 10.75 C5.51414062 11.54921875 5.40328125 12.3484375 5.2890625 13.171875 C5.19367187 13.77515625 5.09828125 14.3784375 5 15 C4.34 14.67 3.68 14.34 3 14 C3 13.01 3 12.02 3 11 C2.01 10.67 1.02 10.34 0 10 C0 6.7 0 3.4 0 0 Z " fill="#ADB6BF" transform="translate(38,34)"/>
<path d="M0 0 C3 2 3 2 3.75 3.75 C4.07181166 6.64630498 3.58124917 9.15833741 3 12 C1 10 1 10 0 4 C-5.28 3.67 -10.56 3.34 -16 3 C-16 2.67 -16 2.34 -16 2 C-14.27185839 1.80327635 -12.54240803 1.61803201 -10.8125 1.4375 C-9.84957031 1.33308594 -8.88664062 1.22867187 -7.89453125 1.12109375 C-5.05766623 1.00241249 -2.74576329 1.32234361 0 2 C0 1.34 0 0.68 0 0 Z " fill="#3B3C3D" transform="translate(60,21)"/>
<path d="M0 0 C0.66 0 1.32 0 2 0 C3.14077657 3.42232972 3.09815117 6.08673217 3.0625 9.6875 C3.05347656 10.86699219 3.04445313 12.04648438 3.03515625 13.26171875 C3.02355469 14.16535156 3.01195312 15.06898437 3 16 C0.525 15.01 0.525 15.01 -2 14 C-1.34 13.67 -0.68 13.34 0 13 C0 8.71 0 4.42 0 0 Z " fill="#C9CBCB" transform="translate(26,80)"/>
<path d="M0 0 C0 3.3 0 6.6 0 10 C0.66 10 1.32 10 2 10 C2 10.66 2 11.32 2 12 C-0.97 11.505 -0.97 11.505 -4 11 C-3.34 8.36 -2.68 5.72 -2 3 C-3.32 2.67 -4.64 2.34 -6 2 C-1.125 0 -1.125 0 0 0 Z " fill="#B7B7B7" transform="translate(60,55)"/>
<path d="M0 0 C0.33 1.32 0.66 2.64 1 4 C1.66 4 2.32 4 3 4 C3.33 3.34 3.66 2.68 4 2 C3.67 5.63 3.34 9.26 3 13 C2.34 13 1.68 13 1 13 C0.67 8.71 0.34 4.42 0 0 Z " fill="#373430" transform="translate(38,24)"/>
<path d="M0 0 C0.66 0.33 1.32 0.66 2 1 C1.34 2.65 0.68 4.3 0 6 C0.99 6 1.98 6 3 6 C3 6.66 3 7.32 3 8 C1.02 8.33 -0.96 8.66 -3 9 C-3.36923077 3.46153846 -3.36923077 3.46153846 -1.5 1.125 C-1.005 0.75375 -0.51 0.3825 0 0 Z " fill="#C0C0C0" transform="translate(47,24)"/>
<path d="M0 0 C0.66 1.32 1.32 2.64 2 4 C1.01 4.495 1.01 4.495 0 5 C0.33 5.99 0.66 6.98 1 8 C0.01 8.66 -0.98 9.32 -2 10 C-3.125 5.25 -3.125 5.25 -2 3 C-2.99 2.67 -3.98 2.34 -5 2 C-3.35 1.34 -1.7 0.68 0 0 Z " fill="#CED3D8" transform="translate(41,54)"/>
<path d="M0 0 C1.32 0.33 2.64 0.66 4 1 C3.67 1.66 3.34 2.32 3 3 C2.01 3.33 1.02 3.66 0 4 C-0.99 5.485 -0.99 5.485 -2 7 C-3.65 5.35 -5.3 3.7 -7 2 C-3.535 1.505 -3.535 1.505 0 1 C0 0.67 0 0.34 0 0 Z " fill="#BABABA" transform="translate(51,47)"/>
<path d="M0 0 C0.33 0.66 0.66 1.32 1 2 C1.66 2 2.32 2 3 2 C3 2.66 3 3.32 3 4 C3.99 4 4.98 4 6 4 C5.1875 5.9375 5.1875 5.9375 4 8 C3.01 8.33 2.02 8.66 1 9 C0.67 6.03 0.34 3.06 0 0 Z " fill="#C7C7C7" transform="translate(43,36)"/>
<path d="M0 0 C2.97 0.99 5.94 1.98 9 3 C7.3125 4.5625 7.3125 4.5625 5 6 C2.25 5.6875 2.25 5.6875 0 5 C0 3.35 0 1.7 0 0 Z " fill="#C3C3C3" transform="translate(44,54)"/>
<path d="M0 0 C1.81242052 -0.02687279 3.62495233 -0.04633715 5.4375 -0.0625 C6.44683594 -0.07410156 7.45617188 -0.08570312 8.49609375 -0.09765625 C11 0 11 0 12 1 C12.04063832 2.66617115 12.042721 4.33388095 12 6 C10.5 4.625 10.5 4.625 9 3 C9 2.34 9 1.68 9 1 C6.03 1 3.06 1 0 1 C0 0.67 0 0.34 0 0 Z " fill="#A2A2A1" transform="translate(49,24)"/>
<path d="M0 0 C1.04449911 3.13349732 0.93423645 3.98968256 0 7 C0.66 7.33 1.32 7.66 2 8 C0.35 8.66 -1.3 9.32 -3 10 C-2.49287967 6.28111761 -1.88391785 3.26545761 0 0 Z " fill="#B7B9BF" transform="translate(76,85)"/>
<path d="M0 0 C1.22589844 0.15275391 1.22589844 0.15275391 2.4765625 0.30859375 C3.41628906 0.43427734 3.41628906 0.43427734 4.375 0.5625 C4.045 1.2225 3.715 1.8825 3.375 2.5625 C0.405 2.5625 -2.565 2.5625 -5.625 2.5625 C-5.955 1.9025 -6.285 1.2425 -6.625 0.5625 C-4.10446405 -0.69776798 -2.7707902 -0.35624445 0 0 Z " fill="#0E0E0E" transform="translate(50.625,20.4375)"/>
<path d="M0 0 C2.4375 0.375 2.4375 0.375 5 1 C5.33 1.66 5.66 2.32 6 3 C5.67 3.66 5.34 4.32 5 5 C2.525 4.01 2.525 4.01 0 3 C0 2.01 0 1.02 0 0 Z " fill="#D7DADD" transform="translate(67,60)"/>
<path d="M0 0 C-0.99 0.66 -1.98 1.32 -3 2 C-3 3.32 -3 4.64 -3 6 C-4.32 5.34 -5.64 4.68 -7 4 C-6.6875 2.0625 -6.6875 2.0625 -6 0 C-3 -1 -3 -1 0 0 Z " fill="#DFDEDD" transform="translate(38,58)"/>
<path d="M0 0 C3.3 0 6.6 0 10 0 C9.01 1.485 9.01 1.485 8 3 C7.401875 2.814375 6.80375 2.62875 6.1875 2.4375 C3.83591238 1.77906313 3.83591238 1.77906313 1 3 C0.67 2.01 0.34 1.02 0 0 Z " fill="#8F8F8F" transform="translate(48,46)"/>
<path d="M0 0 C1.98 0.99 1.98 0.99 4 2 C4 3.98 4 5.96 4 8 C3.01 8.33 2.02 8.66 1 9 C1.20625 8.2575 1.4125 7.515 1.625 6.75 C2.04408751 3.67669159 1.61949011 2.57213134 0 0 Z " fill="#CCCDCD" transform="translate(57,40)"/>
<path d="M0 0 C2 1 2 1 2.6875 2.6875 C3.08443325 5.62480602 2.59080963 8.11159734 2 11 C0 9 0 9 -0.1953125 6.8359375 C-0.17210937 6.02382813 -0.14890625 5.21171875 -0.125 4.375 C-0.10695312 3.55773437 -0.08890625 2.74046875 -0.0703125 1.8984375 C-0.04710937 1.27195312 -0.02390625 0.64546875 0 0 Z " fill="#231518" transform="translate(61,22)"/>
<path d="M0 0 C1.98 0.495 1.98 0.495 4 1 C4 1.99 4 2.98 4 4 C2.35 4 0.7 4 -1 4 C-0.67 2.68 -0.34 1.36 0 0 Z " fill="#787878" transform="translate(56,33)"/>
<path d="M0 0 C0.66 0 1.32 0 2 0 C2.33 2.97 2.66 5.94 3 9 C0.23776722 6.23776722 0.42143709 3.79293383 0 0 Z " fill="#C1C1C1" transform="translate(26,80)"/>
<path d="M0 0 C4.62 0 9.24 0 14 0 C14 0.33 14 0.66 14 1 C9.38 1 4.76 1 0 1 C0 0.67 0 0.34 0 0 Z " fill="#99ABCB" transform="translate(43,102)"/>
<path d="M0 0 C-4.455 0.495 -4.455 0.495 -9 1 C-9 0.67 -9 0.34 -9 0 C-5.32431536 -0.91892116 -3.83619425 -0.95904856 0 0 Z " fill="#B5CECE" transform="translate(66,101)"/>
<path d="M0 0 C0 0.99 0 1.98 0 3 C-1.98 3.99 -1.98 3.99 -4 5 C-2.68 3.35 -1.36 1.7 0 0 Z " fill="#8DAAC0" transform="translate(87,85)"/>
<path d="M0 0 C1.98 0 3.96 0 6 0 C6 0.33 6 0.66 6 1 C4.02 1 2.04 1 0 1 C0 0.67 0 0.34 0 0 Z " fill="#E1E1E1" transform="translate(37,101)"/>
<path d="M0 0 C0.99 0.33 1.98 0.66 3 1 C1.68 1.33 0.36 1.66 -1 2 C-0.67 1.34 -0.34 0.68 0 0 Z " fill="#44A1FF" transform="translate(27,2)"/>
<path d="M0 0 C0.66 0.33 1.32 0.66 2 1 C1.01 1 0.02 1 -1 1 C-0.67 0.67 -0.34 0.34 0 0 Z " fill="#9D9D9D" transform="translate(76,94)"/>
<path d="M0 0 C0.66 0.33 1.32 0.66 2 1 C1.01 1 0.02 1 -1 1 C-0.67 0.67 -0.34 0.34 0 0 Z " fill="#AAAAAA" transform="translate(79,92)"/>
<path d="M0 0 C0.99 0.33 1.98 0.66 3 1 C2.01 1 1.02 1 0 1 C0 0.67 0 0.34 0 0 Z " fill="#AAAAAA" transform="translate(19,92)"/>
<path d="M0 0 C0.99 0.33 1.98 0.66 3 1 C2.01 1 1.02 1 0 1 C0 0.67 0 0.34 0 0 Z " fill="#9F9FDF" transform="translate(14,88)"/>
<path d="M0 0 C0.99 0.495 0.99 0.495 2 1 C1.67 1.66 1.34 2.32 1 3 C0.67 2.01 0.34 1.02 0 0 Z " fill="#5F7FDF" transform="translate(11,84)"/>
<path d="M0 0 C0.99 0.495 0.99 0.495 2 1 C1.67 1.66 1.34 2.32 1 3 C0.67 2.01 0.34 1.02 0 0 Z " fill="#4270FF" transform="translate(93,21)"/>
<path d="M0 0 C3 1 3 1 3 1 Z " fill="#EEEEEE" transform="translate(34,100)"/>
<path d="M0 0 C3 1 3 1 3 1 Z " fill="#FFFFFF" transform="translate(66,99)"/>
<path d="M0 0 C3 1 3 1 3 1 Z " fill="#AAAAD4" transform="translate(31,99)"/>
<path d="" fill="#40BFFF" transform="translate(0,0)"/>
<path d="" fill="#2A7FFF" transform="translate(0,0)"/>
<path d="" fill="#5CA3FF" transform="translate(0,0)"/>
<path d="" fill="#2AD4FF" transform="translate(0,0)"/>
<path d="" fill="#3BDDEE" transform="translate(0,0)"/>
<path d="M0 0 C3 1 3 1 3 1 Z " fill="#2AAAFF" transform="translate(65,0)"/>
<path d="M0 0 C3 1 3 1 3 1 Z " fill="#2AAAFF" transform="translate(32,0)"/>
<path d="M0 0 C2 1 2 1 2 1 Z " fill="#E5E5E5" transform="translate(69,98)"/>
<path d="M0 0 C2 1 2 1 2 1 Z " fill="#D4D4D4" transform="translate(29,98)"/>
<path d="M0 0 C2 1 2 1 2 1 Z " fill="#E5E5E5" transform="translate(71,97)"/>
<path d="M0 0 C2 1 2 1 2 1 Z " fill="#DFDFDF" transform="translate(27,97)"/>
<path d="M0 0 C2 1 2 1 2 1 Z " fill="#4CCCCC" transform="translate(73,96)"/>
<path d="M0 0 C2 1 2 1 2 1 Z " fill="#FFFFFF" transform="translate(25,96)"/>
<path d="M0 0 C2 1 2 1 2 1 Z " fill="#7FFFFF" transform="translate(23,95)"/>
<path d="" fill="#19CCFF" transform="translate(0,0)"/>
<path d="" fill="#209FFF" transform="translate(0,0)"/>
<path d="" fill="#198CFF" transform="translate(0,0)"/>
<path d="" fill="#209FFF" transform="translate(0,0)"/>
<path d="" fill="#55AAD4" transform="translate(0,0)"/>
<path d="" fill="#20DFFF" transform="translate(0,0)"/>
<path d="" fill="#209FFF" transform="translate(0,0)"/>
<path d="" fill="#4AB4FF" transform="translate(0,0)"/>
<path d="" fill="#44A1E5" transform="translate(0,0)"/>
<path d="" fill="#4AB4FF" transform="translate(0,0)"/>
<path d="" fill="#44A1FF" transform="translate(0,0)"/>
<path d="" fill="#59CCFF" transform="translate(0,0)"/>
<path d="" fill="#4AB4FF" transform="translate(0,0)"/>
<path d="" fill="#4AB4FF" transform="translate(0,0)"/>
<path d="" fill="#4AB4FF" transform="translate(0,0)"/>
<path d="" fill="#55AAFF" transform="translate(0,0)"/>
<path d="" fill="#209FFF" transform="translate(0,0)"/>
<path d="" fill="#4AB4FF" transform="translate(0,0)"/>
<path d="" fill="#205FFF" transform="translate(0,0)"/>
<path d="" fill="#2AD4FF" transform="translate(0,0)"/>
<path d="" fill="#6AD4FF" transform="translate(0,0)"/>
<path d="M0 0 C2 1 2 1 2 1 Z " fill="#6080DF" transform="translate(80,8)"/>
<path d="M0 0 C2 1 2 1 2 1 Z " fill="#80FFFF" transform="translate(18,8)"/>
<path d="M0 0 C2 1 2 1 2 1 Z " fill="#20BFFF" transform="translate(77,6)"/>
<path d="M0 0 C2 1 2 1 2 1 Z " fill="#194CFF" transform="translate(22,5)"/>
<path d="M0 0 C2 1 2 1 2 1 Z " fill="#4AB4FF" transform="translate(74,4)"/>
<path d="M0 0 C2 1 2 1 2 1 Z " fill="#4A95FF" transform="translate(24,4)"/>
<path d="M0 0 C2 1 2 1 2 1 Z " fill="#55AAFF" transform="translate(72,3)"/>
<path d="M0 0 C2 1 2 1 2 1 Z " fill="#4AB4FF" transform="translate(70,2)"/>
<path d="M0 0 C2 1 2 1 2 1 Z " fill="#59CCFF" transform="translate(68,1)"/>
<path d="M0 0 C2 1 2 1 2 1 Z " fill="#44A1FF" transform="translate(30,1)"/>
<path d="" fill="#AAFFFF" transform="translate(0,0)"/>
<path d="" fill="#CCCCCC" transform="translate(0,0)"/>
<path d="" fill="#CCCCFF" transform="translate(0,0)"/>
<path d="" fill="#D5D5D5" transform="translate(0,0)"/>
<path d="" fill="#FFFFFF" transform="translate(0,0)"/>
<path d="" fill="#808080" transform="translate(0,0)"/>
<path d="" fill="#3399FF" transform="translate(0,0)"/>
<path d="" fill="#33CCFF" transform="translate(0,0)"/>
<path d="" fill="#66CCFF" transform="translate(0,0)"/>
<path d="" fill="#3399FF" transform="translate(0,0)"/>
<path d="" fill="#3399FF" transform="translate(0,0)"/>
<path d="" fill="#55AAFF" transform="translate(0,0)"/>
<path d="" fill="#40BFFF" transform="translate(0,0)"/>
<path d="" fill="#40BFFF" transform="translate(0,0)"/>
<path d="" fill="#3399FF" transform="translate(0,0)"/>
<path d="" fill="#3399CC" transform="translate(0,0)"/>
<path d="" fill="#3399FF" transform="translate(0,0)"/>
<path d="" fill="#33CCFF" transform="translate(0,0)"/>
<path d="" fill="#3399FF" transform="translate(0,0)"/>
<path d="" fill="#55AAFF" transform="translate(0,0)"/>
<path d="" fill="#40BFFF" transform="translate(0,0)"/>
<path d="" fill="#3399FF" transform="translate(0,0)"/>
<path d="" fill="#33CCFF" transform="translate(0,0)"/>
<path d="" fill="#33CCFF" transform="translate(0,0)"/>
<path d="" fill="#33CCFF" transform="translate(0,0)"/>
<path d="" fill="#2BAAD5" transform="translate(0,0)"/>
<path d="" fill="#55AAFF" transform="translate(0,0)"/>
<path d="" fill="#55AAFF" transform="translate(0,0)"/>
<path d="" fill="#3399FF" transform="translate(0,0)"/>
<path d="" fill="#55AAFF" transform="translate(0,0)"/>
<path d="" fill="#55AAFF" transform="translate(0,0)"/>
<path d="" fill="#33CCFF" transform="translate(0,0)"/>
<path d="" fill="#33CCFF" transform="translate(0,0)"/>
<path d="" fill="#3399FF" transform="translate(0,0)"/>
<path d="" fill="#2BAAD5" transform="translate(0,0)"/>
<path d="" fill="#55AAFF" transform="translate(0,0)"/>
<path d="" fill="#40BFFF" transform="translate(0,0)"/>
<path d="" fill="#3399FF" transform="translate(0,0)"/>
<path d="" fill="#3399FF" transform="translate(0,0)"/>
<path d="" fill="#40BFFF" transform="translate(0,0)"/>
<path d="" fill="#3399FF" transform="translate(0,0)"/>
</svg>
