<?xml version="1.0" encoding="utf-8"?>
<!-- Generator: Adobe Illustrator 16.0.0, SVG Export Plug-In . SVG Version: 6.00 Build 0)  -->
<!DOCTYPE svg PUBLIC "-//W3C//DTD SVG 1.1//EN" "http://www.w3.org/Graphics/SVG/1.1/DTD/svg11.dtd">
<svg version="1.1" id="Layer_1" xmlns="http://www.w3.org/2000/svg" xmlns:xlink="http://www.w3.org/1999/xlink" x="0px" y="0px"
	 width="409px" height="67px" viewBox="1.057 2.834 409 67" enable-background="new 1.057 2.834 409 67" xml:space="preserve">
<g id="Layer_2">
	<g>
		<g>
			<path fill="#BFBF7F" d="M25.795,5.53c0-0.929,0.744-1.766,1.769-1.766H49.45c11.454,0,20.861,9.293,20.861,20.536
				c0,11.522-9.407,20.909-20.768,20.909h-11.64v21.838c0,0.928-0.838,1.767-1.769,1.767h-8.569c-1.024,0-1.769-0.838-1.769-1.767
				L25.795,5.53L25.795,5.53z M49.078,33.872c5.214,0,9.22-4.181,9.22-9.664c0-5.111-4.005-9.014-9.22-9.014H37.902v18.677H49.078z"
				/>
		</g>
		<g>
			<path fill="#BFBF7F" d="M80.642,5.53c0-0.929,0.745-1.766,1.77-1.766h26.634c11.175,0,20.302,8.921,20.302,19.978
				c0,8.55-5.682,15.52-13.783,18.771l12.759,23.605c0.651,1.207,0,2.696-1.584,2.696h-9.779c-0.837,0-1.303-0.466-1.489-0.838
				l-12.386-24.624H92.75v23.696c0,0.928-0.839,1.767-1.77,1.767h-8.568c-1.025,0-1.77-0.838-1.77-1.767L80.642,5.53L80.642,5.53z
				 M108.021,33.407c4.937,0,9.221-4.274,9.221-9.477c0-4.925-4.285-9.014-9.221-9.014h-15.18v18.491H108.021z"/>
		</g>
		<g>
			<path fill="#BFBF7F" d="M142.102,5.53c0-0.929,0.838-1.766,1.769-1.766h8.662c0.93,0,1.769,0.836,1.769,1.766v61.517
				c0,0.928-0.838,1.764-1.769,1.764h-8.662c-0.931,0-1.769-0.836-1.769-1.764V5.53z"/>
		</g>
		<g>
			<path fill="#BFBF7F" d="M177.674,4.228c0.092-0.743,0.651-1.394,1.675-1.394h1.49c0.745,0,1.304,0.372,1.583,0.929l20.488,43.861
				c0.186,0,0.186,0,0.279,0L223.68,3.763c0.279-0.557,0.745-0.929,1.583-0.929h1.49c1.024,0,1.583,0.65,1.678,1.394l10.987,62.446
				c0.28,1.301-0.465,2.137-1.676,2.137h-8.473c-0.837,0-1.583-0.743-1.769-1.394l-5.496-35.22c-0.093,0-0.279,0-0.279,0
				L205.426,68.72c-0.186,0.558-0.746,1.022-1.583,1.022h-1.677c-0.838,0-1.304-0.464-1.583-1.022l-16.485-36.521
				c0,0-0.185,0-0.278,0l-5.401,35.22c-0.094,0.65-0.839,1.395-1.677,1.395h-8.383c-1.209,0-1.955-0.838-1.769-2.138L177.674,4.228z
				"/>
		</g>
		<g>
			<path fill="#BFBF7F" d="M251.702,5.53c0-0.929,0.743-1.766,1.767-1.766h37.905c1.025,0,1.768,0.836,1.768,1.766v7.62
				c0,0.929-0.742,1.766-1.768,1.766h-27.567v15.238h23.005c0.932,0,1.769,0.838,1.769,1.766v7.713c0,1.022-0.837,1.766-1.769,1.766
				h-23.005v16.261h27.567c1.025,0,1.768,0.836,1.768,1.766v7.62c0,0.93-0.742,1.767-1.768,1.767h-37.905
				c-1.024,0-1.767-0.837-1.767-1.767V5.53L251.702,5.53z"/>
		</g>
		<g>
			<path fill="#BFBF7F" d="M307.355,55.499c3.854,0,7.115,3.253,7.115,7.1c0,3.772-3.262,7.027-7.115,7.027
				c-3.854,0-7.043-3.255-7.043-7.027C300.312,58.751,303.501,55.499,307.355,55.499z"/>
		</g>
		<g>
			<path fill="#BFBF7F" d="M318.758,28.389c-0.653-1.301-0.094-2.508,1.489-2.508h8.848c1.023,0,1.583,0.464,1.956,1.208
				l8.941,21.187c0.091,0,0.184,0,0.184,0l9.5-21.187c0.558-1.116,1.488-1.208,2.7-1.208h7.823c1.583,0,2.233,1.208,1.489,2.508
				L342.316,68.72c-0.37,0.558-0.93,1.115-1.862,1.115h-0.558c-0.932,0-1.489-0.557-1.864-1.115L318.758,28.389z"/>
		</g>
		<g>
			<path fill="#BFBF7F" d="M387.948,24.95c6.704,0,11.919,2.882,16.017,7.249c0.934,0.929,0.467,2.138-0.464,3.067l-3.911,4.275
				c-0.933,1.021-1.956,0.557-2.797-0.278c-2.047-1.952-4.56-3.718-8.565-3.718c-6.705,0-11.36,5.203-11.36,11.801
				c0,6.692,4.562,11.894,11.268,11.894c4.75,0,7.266-2.603,9.126-4.739c0.653-0.744,1.956-0.929,2.7-0.279l4.194,3.529
				c1.022,0.93,1.488,1.953,0.744,3.068c-3.634,5.668-9.407,9.015-17.045,9.015c-12.572,0-22.723-9.573-22.723-22.489
				C365.132,34.708,375.191,24.95,387.948,24.95z"/>
		</g>
	</g>
	<path fill="#A7A7A3" d="M28.587,5.53c0-0.929,0.745-1.766,1.77-1.766h21.885c11.454,0,20.86,9.293,20.86,20.536
		c0,11.522-9.406,20.909-20.767,20.909H40.694v21.838c0,0.928-0.838,1.767-1.769,1.767h-8.568c-1.024,0-1.77-0.838-1.77-1.767
		L28.587,5.53L28.587,5.53z M51.87,33.872c5.214,0,9.219-4.181,9.219-9.664c0-5.111-4.004-9.014-9.219-9.014H40.693v18.677H51.87z"
		/>
	<path fill="#A7A7A3" d="M83.434,5.53c0-0.929,0.745-1.766,1.77-1.766h26.634c11.176,0,20.302,8.921,20.302,19.978
		c0,8.55-5.681,15.52-13.783,18.771l12.758,23.605c0.652,1.207,0,2.696-1.583,2.696h-9.778c-0.839,0-1.305-0.466-1.49-0.838
		l-12.387-24.624H95.542v23.696c0,0.928-0.839,1.767-1.77,1.767h-8.568c-1.024,0-1.77-0.838-1.77-1.767L83.434,5.53L83.434,5.53z
		 M110.813,33.407c4.936,0,9.22-4.274,9.22-9.477c0-4.925-4.284-9.014-9.22-9.014H95.634v18.491H110.813z"/>
	<path fill="#A7A7A3" d="M144.893,5.53c0-0.929,0.838-1.766,1.77-1.766h8.661c0.932,0,1.769,0.836,1.769,1.766v61.517
		c0,0.928-0.837,1.764-1.769,1.764h-8.661c-0.932,0-1.77-0.836-1.77-1.764V5.53z"/>
	<path fill="#A7A7A3" d="M180.467,4.228c0.093-0.743,0.652-1.394,1.676-1.394h1.49c0.745,0,1.304,0.372,1.583,0.929l20.488,43.861
		c0.186,0,0.186,0,0.28,0l20.488-43.861c0.279-0.557,0.745-0.929,1.583-0.929h1.49c1.025,0,1.583,0.65,1.678,1.394l10.987,62.446
		c0.281,1.301-0.465,2.137-1.675,2.137h-8.475c-0.837,0-1.582-0.743-1.769-1.394l-5.495-35.22c-0.094,0-0.279,0-0.279,0
		L208.22,68.718c-0.186,0.558-0.746,1.023-1.584,1.023h-1.677c-0.837,0-1.304-0.465-1.583-1.023l-16.483-36.521c0,0-0.185,0-0.279,0
		l-5.403,35.22c-0.093,0.651-0.838,1.394-1.676,1.394h-8.382c-1.21,0-1.956-0.836-1.769-2.137L180.467,4.228z"/>
	<path fill="#A7A7A3" d="M254.495,5.53c0-0.929,0.744-1.766,1.769-1.766h37.905c1.024,0,1.77,0.836,1.77,1.766v7.62
		c0,0.929-0.745,1.766-1.77,1.766H266.6v15.238h23.004c0.932,0,1.77,0.838,1.77,1.766v7.713c0,1.022-0.838,1.766-1.77,1.766H266.6
		v16.261h27.568c1.024,0,1.77,0.836,1.77,1.766v7.62c0,0.93-0.745,1.767-1.77,1.767h-37.905c-1.024,0-1.769-0.837-1.769-1.767V5.53z
		"/>
	<path fill="#D4AD41" d="M310.147,55.499c3.854,0,7.115,3.253,7.115,7.1c0,3.772-3.263,7.027-7.115,7.027s-7.04-3.255-7.04-7.027
		C303.107,58.751,306.296,55.499,310.147,55.499z"/>
	<path fill="#D4AD41" d="M321.552,28.389c-0.652-1.301-0.095-2.508,1.489-2.508h8.847c1.023,0,1.583,0.464,1.955,1.208l8.939,21.187
		c0.094,0,0.186,0,0.186,0l9.502-21.187c0.559-1.116,1.486-1.208,2.699-1.208h7.822c1.582,0,2.236,1.208,1.492,2.508L345.108,68.72
		c-0.371,0.558-0.93,1.115-1.86,1.115h-0.559c-0.933,0-1.489-0.557-1.863-1.115L321.552,28.389z"/>
	<path fill="#D4AD41" d="M390.74,24.95c6.706,0,11.92,2.882,16.018,7.249c0.933,0.929,0.468,2.138-0.465,3.067l-3.909,4.275
		c-0.931,1.021-1.957,0.557-2.795-0.278c-2.048-1.952-4.561-3.718-8.567-3.718c-6.705,0-11.361,5.203-11.361,11.801
		c0,6.692,4.563,11.894,11.27,11.894c4.747,0,7.263-2.603,9.126-4.739c0.65-0.744,1.958-0.929,2.7-0.279l4.192,3.529
		c1.022,0.93,1.486,1.953,0.743,3.068c-3.631,5.668-9.404,9.015-17.043,9.015c-12.57,0-22.723-9.573-22.723-22.489
		C367.926,34.708,377.982,24.95,390.74,24.95z"/>
	<polygon fill="#D4AE41" stroke="#BFBF7F" stroke-width="2.3031" stroke-linecap="round" stroke-miterlimit="10" points="
		8.057,11.029 27.356,5.228 36.979,12.604 30.214,16.472 	"/>
	<polygon fill="#8E7929" points="12.162,10.928 27.1,8.203 34.925,12.466 27.082,6.441 	"/>
</g>
</svg>
