<svg xmlns="http://www.w3.org/2000/svg" width="300.25" height="300.255" viewBox="0 0 300.25 300.255">
  <metadata><?xpacket begin="﻿" id="W5M0MpCehiHzreSzNTczkc9d"?>
<x:xmpmeta xmlns:x="adobe:ns:meta/" x:xmptk="Adobe XMP Core 5.6-c142 79.160924, 2017/07/13-01:06:39        ">
   <rdf:RDF xmlns:rdf="http://www.w3.org/1999/02/22-rdf-syntax-ns#">
      <rdf:Description rdf:about=""/>
   </rdf:RDF>
</x:xmpmeta>
                                                                                                    
                                                                                                    
                                                                                                    
                                                                                                    
                                                                                                    
                                                                                                    
                                                                                                    
                                                                                                    
                                                                                                    
                                                                                                    
                                                                                                    
                                                                                                    
                                                                                                    
                                                                                                    
                                                                                                    
                                                                                                    
                                                                                                    
                                                                                                    
                                                                                                    
                                                                                                    
                           
<?xpacket end="w"?></metadata>
<defs>
    <style>
      .cls-1 {
        fill: #95009a;
        fill-rule: evenodd;
        opacity: 0.8;
      }
    </style>
  </defs>
  <path id="icon" class="cls-1" d="M1003.38,930.686l33.31,266.924,266.93-33.3-33.31-266.93Zm287.73,223.884-244.69,30.54-10.41-83.42,244.69-30.53Zm-11.8-94.53-33.37,4.16-10.4-83.416-11.13,1.388,10.41,83.418-22.24,2.77-6.94-55.61-11.12,1.39,6.94,55.61-22.25,2.78-9.02-72.3-11.12,1.39,9.02,72.29-22.24,2.78-4.17-33.37-11.12,1.39,4.16,33.37-22.24,2.77-2.78-22.24-11.12,1.39,2.78,22.24-22.25,2.78-5.55-44.49-11.12,1.39,5.55,44.48-33.36,4.17-13.19-105.663,244.69-30.53Zm-14.57-116.784-244.69,30.531-4.16-33.367,244.69-30.53Zm-25.02-19.47,11.12-1.387,1.39,11.122-11.12,1.388Zm-22.24,2.776,11.12-1.388,1.39,11.123-11.13,1.387Zm-22.25,2.775,11.12-1.387,1.39,11.123-11.12,1.387ZM1033.96,949.46l133.47-16.653,1.38,11.122-133.46,16.653Zm15.26,167.52,94.53-11.79,1.39,11.12-94.54,11.8Zm2.77,22.25,94.54-11.8,1.39,11.12-94.54,11.8Zm2.78,22.24,61.17-7.63,1.39,11.12-61.17,7.63Zm122.35-60.45,94.54-11.79,1.39,11.12-94.54,11.8Zm2.78,22.25,94.53-11.8,1.39,11.12-94.54,11.8Zm2.77,22.24,61.17-7.63,1.39,11.12-61.17,7.64Z" transform="translate(-1003.38 -897.375)"/>
</svg>
