<svg xmlns="http://www.w3.org/2000/svg" width="276" height="231" viewBox="0 0 276 231">
  <metadata><?xpacket begin="﻿" id="W5M0MpCehiHzreSzNTczkc9d"?>
<x:xmpmeta xmlns:x="adobe:ns:meta/" x:xmptk="Adobe XMP Core 5.6-c142 79.160924, 2017/07/13-01:06:39        ">
   <rdf:RDF xmlns:rdf="http://www.w3.org/1999/02/22-rdf-syntax-ns#">
      <rdf:Description rdf:about=""/>
   </rdf:RDF>
</x:xmpmeta>
                                                                                                    
                                                                                                    
                                                                                                    
                                                                                                    
                                                                                                    
                                                                                                    
                                                                                                    
                                                                                                    
                                                                                                    
                                                                                                    
                                                                                                    
                                                                                                    
                                                                                                    
                                                                                                    
                                                                                                    
                                                                                                    
                                                                                                    
                                                                                                    
                                                                                                    
                                                                                                    
                           
<?xpacket end="w"?></metadata>
<defs>
    <style>
      .cls-1 {
        fill: #95009a;
        fill-rule: evenodd;
        opacity: 0.8;
      }
    </style>
  </defs>
  <path id="icon" class="cls-1" d="M1271.76,1489l-13.21-167L1009,1341.67l13.22,167.01-11.34.89,1.89,23.95,15.61,19.48,244.27-19.26,12.35-21.68-1.89-23.95Zm-250.53-137.09,226.85-17.88,12.34,155.87-226.86,17.88Zm252.16,157.67-7.69,13.51-232.13,18.3-9.72-12.13-0.75-9.45,249.54-19.67Zm-130.75,6.41,11.35-.9,0.88,11.13-11.35.9Zm-22.68,1.78,11.34-.89,0.88,11.13-11.34.9Zm45.37-3.57,11.34-.9,0.88,11.14-11.34.89ZM1060.1,1410.46l-3.08-38.96-11.34.89,0.44,5.57-5.68.44,0.89,11.14,5.67-.45,1.76,22.27-5.67.45,0.88,11.13,22.68-1.79-0.88-11.13Zm85.07-6.7-3.08-38.97-11.34.89,0.44,5.57-5.67.45,0.88,11.13,5.67-.45,1.76,22.27-5.67.45,0.88,11.13,22.69-1.79-0.88-11.13Zm39.7-3.13-3.08-38.97-11.34.89,0.44,5.57-5.67.45,0.88,11.13,5.67-.45,1.76,22.27-5.67.45,0.88,11.13,22.69-1.79-0.89-11.13Zm-93.82-31.82a16.938,16.938,0,0,0-15.7,18.05l1.33,16.7a17.066,17.066,0,0,0,34.02-2.69l-1.32-16.7A16.933,16.933,0,0,0,1091.05,1368.81Zm8.31,32.96a5.688,5.688,0,0,1-11.34.89l-1.32-16.7a5.688,5.688,0,0,1,11.34-.89Zm116.46-42.79a16.921,16.921,0,0,0-15.69,18.04l1.32,16.7a17.071,17.071,0,0,0,34.03-2.68l-1.33-16.7A16.927,16.927,0,0,0,1215.82,1358.98Zm8.31,32.95a5.688,5.688,0,0,1-11.34.89l-1.32-16.7a5.688,5.688,0,0,1,11.34-.89Zm-173.17,47.26,11.35-.89,3.08,38.97-11.34.89Zm3.53,44.54,11.34-.9,0.88,11.14-11.34.89Zm54.51-32.31,11.34-.89,3.09,38.96-11.35.9Zm-1.32-16.7,11.34-.89,0.88,11.13-11.34.89Zm85.07-6.71,11.34-.89,3.08,38.97-11.34.89Zm3.52,44.54,11.34-.9,0.89,11.14-11.35.89Zm26.16-30.07,11.34-.89,3.08,38.96-11.34.9Zm-1.33-16.7,11.35-.9,0.88,11.14-11.34.89Zm-138.26,55.71,11.35-.89,0.88,11.13-11.34.89Zm-3.52-44.53,11.34-.9,1.76,22.27-11.34.89Zm2.2,27.83,11.35-.89,0.88,11.13-11.35.89Zm86.4,9.99,11.34-.89,0.88,11.13-11.34.9Zm-3.53-44.53,11.34-.89,1.77,22.26-11.35.9Zm2.2,27.83,11.35-.89,0.88,11.13-11.35.9Zm-30.56-25.59,11.35-.9,0.88,11.13-11.35.9Zm2.65,33.4,11.34-.9,1.76,22.27-11.34.89Zm-1.32-16.7,11.34-.9,0.88,11.13-11.34.9Z" transform="translate(-1009 -1322)"/>
</svg>
