<svg xmlns="http://www.w3.org/2000/svg" width="319.563" height="345.005" viewBox="0 0 319.563 345.005">
  <metadata><?xpacket begin="﻿" id="W5M0MpCehiHzreSzNTczkc9d"?>
<x:xmpmeta xmlns:x="adobe:ns:meta/" x:xmptk="Adobe XMP Core 5.6-c142 79.160924, 2017/07/13-01:06:39        ">
   <rdf:RDF xmlns:rdf="http://www.w3.org/1999/02/22-rdf-syntax-ns#">
      <rdf:Description rdf:about=""/>
   </rdf:RDF>
</x:xmpmeta>
                                                                                                    
                                                                                                    
                                                                                                    
                                                                                                    
                                                                                                    
                                                                                                    
                                                                                                    
                                                                                                    
                                                                                                    
                                                                                                    
                                                                                                    
                                                                                                    
                                                                                                    
                                                                                                    
                                                                                                    
                                                                                                    
                                                                                                    
                                                                                                    
                                                                                                    
                                                                                                    
                           
<?xpacket end="w"?></metadata>
<defs>
    <style>
      .cls-1 {
        fill: #95009a;
        fill-rule: evenodd;
        opacity: 0.9;
      }
    </style>
  </defs>
  <path id="icon" class="cls-1" d="M925.826,1099.46c-12.252-28.71,8.227-58.69,8.45-59.01l3.253-4.66-99.886-72.671-13.291,7.674-13.291,7.674,13,122.833,5.658-.48c0.387-.03,36.587-2.78,55.325,22.19l-39.8,22.97,26.062,45.14,120.377-69.5-26.062-45.14-39.8,22.98h0ZM862,1036a5.791,5.791,0,1,1-2.119,7.91A5.792,5.792,0,0,1,862,1036Zm-27.585,53.1-11.04-104.366,1.756-1.013,26.6,46.069a17.378,17.378,0,1,0,10.032-5.79l-26.6-46.071,1.757-1.014,84.864,61.745c-6.241,10.99-18.839,38.8-6.064,66.64l-20.562,11.87C877.434,1092.19,847.047,1089.19,834.412,1089.1Zm141.452,28.29L875.549,1175.3l-14.48-25.08,100.315-57.91ZM882.781,863.5l5.791,10.03-75.235,43.437-5.791-10.03-30.1,17.375,5.791,10.031-75.236,43.437-5.791-10.031L672.121,985.12l17.375,30.09,30.094-17.371L713.8,987.808l51.5-29.731a93.017,93.017,0,0,0-3.586,89.013l-10.265,5.92,17.375,30.1,30.1-17.38-17.375-30.09-9.8,5.65a81.286,81.286,0,0,1,18.245-95.273l4.84,8.384,30.095-17.374-4.84-8.384a81.292,81.292,0,0,1,91.634,31.838l-9.8,5.657,17.375,30.094,30.094-17.374L932.01,948.763l-10.264,5.926a93.02,93.02,0,0,0-78.878-41.4l51.5-29.732,5.792,10.032,30.1-17.375-17.375-30.094ZM703.767,993.6l-10.031,5.791-5.792-10.032,10.031-5.791Zm79.324,67.89-10.032,5.79-5.791-10.03,10.031-5.79Zm26.006-128.7-10.031,5.792-5.792-10.032,10.031-5.791Zm108.642,37.591,10.031-5.792,5.792,10.031-10.032,5.792Zm-3.312-98.4L904.4,877.767,898.6,867.735l10.031-5.792Z" transform="translate(-672.125 -846.125)"/>
</svg>
