<svg xmlns="http://www.w3.org/2000/svg" width="265.38" height="265.38" viewBox="0 0 265.38 265.38">
  <metadata><?xpacket begin="﻿" id="W5M0MpCehiHzreSzNTczkc9d"?>
<x:xmpmeta xmlns:x="adobe:ns:meta/" x:xmptk="Adobe XMP Core 5.6-c142 79.160924, 2017/07/13-01:06:39        ">
   <rdf:RDF xmlns:rdf="http://www.w3.org/1999/02/22-rdf-syntax-ns#">
      <rdf:Description rdf:about=""/>
   </rdf:RDF>
</x:xmpmeta>
                                                                                                    
                                                                                                    
                                                                                                    
                                                                                                    
                                                                                                    
                                                                                                    
                                                                                                    
                                                                                                    
                                                                                                    
                                                                                                    
                                                                                                    
                                                                                                    
                                                                                                    
                                                                                                    
                                                                                                    
                                                                                                    
                                                                                                    
                                                                                                    
                                                                                                    
                                                                                                    
                           
<?xpacket end="w"?></metadata>
<defs>
    <style>
      .cls-1 {
        fill: #95009a;
        fill-rule: evenodd;
        opacity: 0.8;
      }
    </style>
  </defs>
  <path id="icon" class="cls-1" d="M1486.45,1304.38a62.768,62.768,0,1,0,24.77,85.28A62.871,62.871,0,0,0,1486.45,1304.38Zm13.34,82.09a51.356,51.356,0,0,1-65.82,19.18l-3.71-12.74c-2.07-7.15,1.18-15.47,7.73-19.93l26.36,14.5,14.49-26.36c7.98,0.25,15.18,5.49,17.24,12.58Zm-21.32-36.78-6.36-.03-12.26,22.31-22.32-12.26-5.37,3.44c-10.76,6.96-15.98,19.87-13.1,31.76a51.374,51.374,0,1,1,87.53-25.57C1502.66,1357.84,1491.33,1349.8,1478.47,1349.69Zm-34.46-32.23a21.42,21.42,0,1,0,26.55,14.59A21.462,21.462,0,0,0,1444.01,1317.46Zm8.77,30.18a10,10,0,1,1,6.82-12.4A10.016,10.016,0,0,1,1452.78,1347.64Zm60.15,95.52c-1.22.82-2.53,1.52-3.8,2.29a28.359,28.359,0,0,0-51.53,14.94c-1.77.04-3.55,0.17-5.31,0.11l-0.38,11.41c2.45,0.08,4.94-.07,7.42-0.15a28.4,28.4,0,0,0,54.43-15.79c1.85-1.09,3.74-2.13,5.52-3.32Zm-22.17,35.22a17.126,17.126,0,1,1,11.67-21.23A17.142,17.142,0,0,1,1490.76,1478.38Zm-111.78-98.31a28.478,28.478,0,0,0-25.87-20.41c-0.04-1.78-.17-3.56-0.11-5.31l-11.41-.39c-0.08,2.46.07,4.94,0.15,7.42a28.4,28.4,0,0,0,15.79,54.43c1.09,1.86,2.13,3.75,3.32,5.53l9.49-6.35c-0.82-1.23-1.52-2.53-2.29-3.8A28.49,28.49,0,0,0,1378.98,1380.07Zm-22.63,24.41a17.126,17.126,0,1,1,11.67-21.22A17.142,17.142,0,0,1,1356.35,1404.48Zm195.93-11.54a103.166,103.166,0,0,1-4.24,9.95l10.26,5.01a112.7,112.7,0,0,0,4.7-11.05Zm5.24-20.95a103.109,103.109,0,0,1-2.07,10.62l11.08,2.76a115.63,115.63,0,0,0,2.29-11.79Zm-28.04,57.35a104.039,104.039,0,0,1-7.91,7.36l7.32,8.75a111.514,111.514,0,0,0,8.79-8.17Zm13.31-17a104.141,104.141,0,0,1-6.21,8.85l8.99,7.03a117.064,117.064,0,0,0,6.9-9.82Zm11.13-112.6c-1.1-1.85-2.13-3.74-3.33-5.52l-9.48,6.34c0.82,1.23,1.51,2.54,2.28,3.81a28.364,28.364,0,0,0,14.95,51.53c0.03,1.78.16,3.56,0.11,5.32l11.4,0.38c0.09-2.46-.06-4.94-0.14-7.43A28.4,28.4,0,0,0,1553.92,1299.74Zm10.73,44.23a17.124,17.124,0,1,1,11.67-21.23A17.142,17.142,0,0,1,1564.65,1343.97Zm-69.86-93.47-3.91,10.72a105.734,105.734,0,0,1,9.95,4.24l5.01-10.26A112.7,112.7,0,0,0,1494.79,1250.5Zm-23.28-5.82-1.58,11.3a103.514,103.514,0,0,1,10.61,2.07l2.77-11.08A113.229,113.229,0,0,0,1471.51,1244.68Zm44.83,16.35-6.06,9.68a104.029,104.029,0,0,1,8.85,6.2l7.04-8.98A112.732,112.732,0,0,0,1516.34,1261.03Zm18.88,14.78-7.95,8.2a104.04,104.04,0,0,1,7.36,7.92l8.76-7.33A117.2,117.2,0,0,0,1535.22,1275.81Zm-190.3,54.38a113.229,113.229,0,0,0-2.29,11.8l11.3,1.58a104,104,0,0,1,2.06-10.61Zm20.95-42.85a117.064,117.064,0,0,0-6.9,9.82l9.68,6.06a101.916,101.916,0,0,1,6.21-8.85Zm-12.73,20.32a117.767,117.767,0,0,0-4.7,11.05l10.73,3.92a104.721,104.721,0,0,1,4.23-9.96Zm98.98-63.86a28.4,28.4,0,0,0-54.43,15.78c-1.86,1.1-3.75,2.13-5.53,3.33l6.35,9.49c1.23-.83,2.53-1.52,3.8-2.29a28.37,28.37,0,0,0,51.54-14.95c1.77-.03,3.55-0.16,5.31-0.1l0.38-11.41C1457.08,1243.57,1454.6,1243.72,1452.12,1243.8Zm-21.88,26.27a17.124,17.124,0,1,1,11.67-21.22A17.143,17.143,0,0,1,1430.24,1270.07Zm-47.69.04a115.291,115.291,0,0,0-8.79,8.17l8.2,7.94a102.2,102.2,0,0,1,7.92-7.35Zm-5.74,153.52-8.75,7.32a113.3,113.3,0,0,0,8.17,8.79l7.94-8.2A104.039,104.039,0,0,1,1376.81,1423.63Zm33.81,26.47-5.02,10.26a117.947,117.947,0,0,0,11.06,4.7l3.91-10.73A101,101,0,0,1,1410.62,1450.1Zm-18.3-11.46-7.04,8.99a115.606,115.606,0,0,0,9.83,6.9l6.06-9.68A100.41,100.41,0,0,1,1392.32,1438.64Zm38.59,18.87-2.77,11.07a112.542,112.542,0,0,0,11.79,2.29l1.59-11.3A102.956,102.956,0,0,1,1430.91,1457.51Z" transform="translate(-1323.03 -1225.09)"/>
</svg>
