<svg xmlns="http://www.w3.org/2000/svg" width="279.875" height="276.94" viewBox="0 0 279.875 276.94">
  <metadata><?xpacket begin="﻿" id="W5M0MpCehiHzreSzNTczkc9d"?>
<x:xmpmeta xmlns:x="adobe:ns:meta/" x:xmptk="Adobe XMP Core 5.6-c142 79.160924, 2017/07/13-01:06:39        ">
   <rdf:RDF xmlns:rdf="http://www.w3.org/1999/02/22-rdf-syntax-ns#">
      <rdf:Description rdf:about=""/>
   </rdf:RDF>
</x:xmpmeta>
                                                                                                    
                                                                                                    
                                                                                                    
                                                                                                    
                                                                                                    
                                                                                                    
                                                                                                    
                                                                                                    
                                                                                                    
                                                                                                    
                                                                                                    
                                                                                                    
                                                                                                    
                                                                                                    
                                                                                                    
                                                                                                    
                                                                                                    
                                                                                                    
                                                                                                    
                                                                                                    
                           
<?xpacket end="w"?></metadata>
<defs>
    <style>
      .cls-1 {
        fill: #95009a;
        fill-rule: evenodd;
        opacity: 0.8;
      }
    </style>
  </defs>
  <path id="icon" class="cls-1" d="M955.352,1300.12a5.835,5.835,0,0,0-4.888-4.38c-97.011-12.82-136.426-40.64-136.8-40.92a5.834,5.834,0,0,0-7.906.99c-0.31.36-31.675,37.02-122.554,73.3a5.821,5.821,0,0,0-3.661,5.45c0.013,1.57,3.02,157.48,162.447,195.94a5.879,5.879,0,0,0,2.088.11,5.688,5.688,0,0,0,1.994-.62C991.145,1453.51,955.726,1301.65,955.352,1300.12ZM842.583,1518.67c-136.475-34.15-149.943-156.28-151.262-180.29,75.229-30.59,109.467-60.84,119.845-71.33,12.634,7.62,53.241,28.51,133.658,39.67C949.071,1329.9,965,1452.76,842.583,1518.67Zm42.055-199.31a92.755,92.755,0,1,0,34.54,61.29A92.2,92.2,0,0,0,884.638,1319.36Zm-97.978,1.99a87.618,87.618,0,0,0-9.325,23.43,81.247,81.247,0,0,1-11.406-6.51A80.9,80.9,0,0,1,786.66,1321.35Zm-27.8,26.15a92.722,92.722,0,0,0,16.21,9,154.349,154.349,0,0,0-.8,36.38l-28.752,3.59A80.344,80.344,0,0,1,758.855,1347.5Zm-11.906,60.51,28.751-3.59a154.451,154.451,0,0,0,9.725,35.07,92.789,92.789,0,0,0-13.5,12.71A80.346,80.346,0,0,1,746.949,1408.01Zm34.1,51.39a81.159,81.159,0,0,1,9.456-9.11,87.341,87.341,0,0,0,14.8,20.41A80.544,80.544,0,0,1,781.053,1459.4Zm49.924,13.29c-11.235-1.91-22.323-12.89-30.79-29.25a80.81,80.81,0,0,1,25.9-9.88Zm-6.325-50.66a92.365,92.365,0,0,0-29.319,10.72,144.656,144.656,0,0,1-8.091-29.77l34.494-4.31Zm-4.357-34.89-34.494,4.3a144.585,144.585,0,0,1,.524-30.84,92.562,92.562,0,0,0,31.054,3.18Zm-4.356-34.9a80.531,80.531,0,0,1-27.539-3.2c4.185-17.94,12.232-31.31,22.654-35.92Zm90.692,24.12-28.752,3.59a154.4,154.4,0,0,0-9.724-35.07,92.81,92.81,0,0,0,13.5-12.72A80.373,80.373,0,0,1,906.631,1376.36Zm-34.1-51.39a82.828,82.828,0,0,1-9.455,9.11,87.622,87.622,0,0,0-14.8-20.42A80.813,80.813,0,0,1,872.527,1324.97Zm-49.925-13.3c11.236,1.91,22.323,12.89,30.79,29.25a80.572,80.572,0,0,1-25.9,9.88Zm6.326,50.67a92.607,92.607,0,0,0,29.319-10.72,144.31,144.31,0,0,1,8.091,29.77l-34.494,4.3-2.916-23.35h0Zm4.356,34.89h0l34.494-4.31a144.616,144.616,0,0,1-.523,30.85,92.569,92.569,0,0,0-31.055-3.19l-2.916-23.35h0Zm9.242,74.02-4.885-39.13a80.774,80.774,0,0,1,27.538,3.21C861,1453.27,852.947,1466.64,842.526,1471.25Zm24.394-8.24a87.513,87.513,0,0,0,9.325-23.42,81.181,81.181,0,0,1,11.406,6.5A80.49,80.49,0,0,1,866.92,1463.01Zm27.805-26.14a92.7,92.7,0,0,0-16.21-9.01,154.282,154.282,0,0,0,.8-36.38l28.751-3.59A80.36,80.36,0,0,1,894.725,1436.87Z" transform="translate(-679.531 -1253.72)"/>
</svg>
