<svg xmlns="http://www.w3.org/2000/svg" width="318.313" height="265.06" viewBox="0 0 318.313 265.06">
  <metadata><?xpacket begin="﻿" id="W5M0MpCehiHzreSzNTczkc9d"?>
<x:xmpmeta xmlns:x="adobe:ns:meta/" x:xmptk="Adobe XMP Core 5.6-c142 79.160924, 2017/07/13-01:06:39        ">
   <rdf:RDF xmlns:rdf="http://www.w3.org/1999/02/22-rdf-syntax-ns#">
      <rdf:Description rdf:about=""/>
   </rdf:RDF>
</x:xmpmeta>
                                                                                                    
                                                                                                    
                                                                                                    
                                                                                                    
                                                                                                    
                                                                                                    
                                                                                                    
                                                                                                    
                                                                                                    
                                                                                                    
                                                                                                    
                                                                                                    
                                                                                                    
                                                                                                    
                                                                                                    
                                                                                                    
                                                                                                    
                                                                                                    
                                                                                                    
                                                                                                    
                           
<?xpacket end="w"?></metadata>
<defs>
    <style>
      .cls-1 {
        fill: #95009a;
        fill-rule: evenodd;
        opacity: 0.78;
      }
    </style>
  </defs>
  <path class="cls-1" d="M624.216,1311.75a45.11,45.11,0,0,0-.9-14.77c-5.251-23.08-28.808-38.84-52.507-35.12a47.5,47.5,0,0,0-36.219,29.1L527.675,1249c-3.412-20.72-38.9-30.91-82.537-23.72s-73.977,28.23-70.563,48.95l21.362,129.64c3.269,19.83,35.965,29.98,77.05,24.5l2.851,17.3a22.145,22.145,0,0,0-13.052,18.2L338,1485l82.069-2.85,44.519-7.34a22.059,22.059,0,0,0,42.19-6.95L656.3,1444.52l-1.8-10.94-149.519,23.34a22.141,22.141,0,0,0-18.2-13.05l-2.854-17.32c19.273-3.87,37.442-11.15,49.756-20.03,8-1.69,13.066-4.67,18.788-11.3,4.707,2.97,12.64,6.16,23.57,4.36,12.346-2.03,19.463-8.65,22.933-13.04,21.169,4.78,34.606-2.09,42.269-8.95,11.95-10.69,15.62-26.31,13.974-36.3A35.545,35.545,0,0,0,624.216,1311.75ZM446.94,1236.21c38.668-6.37,67.82,2.58,69.8,14.59s-22.761,29.84-61.429,36.21-67.82-2.57-69.8-14.59S408.272,1242.59,446.94,1236.21Zm-58.269,55.39c14.868,8.27,39.871,11.05,68.441,6.35s51.359-15.37,62.788-27.97l3.807,23.1a35.154,35.154,0,0,0-41.371,28.29,35.219,35.219,0,0,0-.539,4.29,152.635,152.635,0,0,1-19.366,4.56c-38.668,6.38-67.82-2.57-69.8-14.58l-3.96-24.04h0Zm80.951,81.83a0.168,0.168,0,0,0-.07.01c-38.668,6.37-67.82-2.57-69.8-14.59l-3.96-24.03c14.867,8.27,39.871,11.05,68.441,6.34a166.386,166.386,0,0,0,18.781-4.33c0.078,0.28.12,0.57,0.206,0.84a35.733,35.733,0,0,0-13.918,34.25C469.387,1372.44,469.518,1372.92,469.622,1373.43Zm26.1,90.63a11.083,11.083,0,1,1-12.738-9.13A11.095,11.095,0,0,1,495.718,1464.06Zm-19.045-47.41c-38.668,6.38-67.82-2.57-69.8-14.59l-3.96-24.03c14.868,8.27,39.871,11.05,68.441,6.34,0.759-.12,1.5-0.28,2.248-0.41,6.673,11.42,19.6,17.78,34.582,16.19a22.01,22.01,0,0,0,6.694,4.58A142.951,142.951,0,0,1,476.673,1416.65Zm157.175-47.32c-8.68,7.77-21.049,9.69-35.776,5.55l-4.267-1.2-2.109,3.9c-0.5.92-5.217,9.04-17.463,11.06-12.044,1.99-18.282-4.6-18.5-4.83l-4.5-5.13-4.1,5.46c-7.041,9.39-10.535,10.74-18.018,11.97-3.372.56-10.944-.32-14.006-4.94l-1.982-2.99-4.161.69c-14.933,2.46-26.478-5.08-28.731-18.75A24.684,24.684,0,0,1,492.7,1344.7l4.5-2.51-2.18-4.67a22.362,22.362,0,0,1-1.795-14.08,24.549,24.549,0,0,1,17.638-19.15c0.78-.21,1.567-0.38,2.355-0.51a24.606,24.606,0,0,1,20.14,5.63l8.539,7.4,0.622-11.28c0.908-16.38,13.4-29.93,30.008-32.72,18.061-2.83,36,9.11,39.983,26.62a34.087,34.087,0,0,1-.25,16.28l-1.939,7.45,7.684-.53a24.636,24.636,0,0,1,26.27,20.46C645.452,1350.23,642.2,1361.86,633.848,1369.33Z" transform="translate(-338 -1222.97)"/>
</svg>
