<svg xmlns="http://www.w3.org/2000/svg" width="265" height="269" viewBox="0 0 265 269">
  <metadata><?xpacket begin="﻿" id="W5M0MpCehiHzreSzNTczkc9d"?>
<x:xmpmeta xmlns:x="adobe:ns:meta/" x:xmptk="Adobe XMP Core 5.6-c142 79.160924, 2017/07/13-01:06:39        ">
   <rdf:RDF xmlns:rdf="http://www.w3.org/1999/02/22-rdf-syntax-ns#">
      <rdf:Description rdf:about=""/>
   </rdf:RDF>
</x:xmpmeta>
                                                                                                    
                                                                                                    
                                                                                                    
                                                                                                    
                                                                                                    
                                                                                                    
                                                                                                    
                                                                                                    
                                                                                                    
                                                                                                    
                                                                                                    
                                                                                                    
                                                                                                    
                                                                                                    
                                                                                                    
                                                                                                    
                                                                                                    
                                                                                                    
                                                                                                    
                                                                                                    
                           
<?xpacket end="w"?></metadata>
<defs>
    <style>
      .cls-1 {
        fill: #95009a;
        fill-rule: evenodd;
        opacity: 0.8;
      }
    </style>
  </defs>
  <path id="icon" class="cls-1" d="M580.181,1003.78l-25.872,26.26-13.759-13.97,52.906-53.7A50.8,50.8,0,0,0,628.071,947.3a52.161,52.161,0,0,0,11.088-56.254l-3.151-7.776L604.846,914.9l-15.212-1.712-1.69-15.444,31.16-31.63-7.66-3.2a50.279,50.279,0,0,0-55.421,11.253,52.3,52.3,0,0,0-14.834,35.121L488.267,963l-62.978-63.927V880.384a5.613,5.613,0,0,0-2.68-4.8l-25.871-15.757a5.466,5.466,0,0,0-6.744.842l-10.35,10.506a5.667,5.667,0,0,0-.83,6.847l15.525,26.261A5.5,5.5,0,0,0,399.072,907h18.411l62.979,63.926-52.927,53.725a50.917,50.917,0,0,0-34.6,15.05,52.148,52.148,0,0,0-11.086,56.25l3.151,7.77,31.163-31.62,15.21,1.71,1.692,15.45-31.16,31.62,7.66,3.2a50.224,50.224,0,0,0,55.42-11.25,52.294,52.294,0,0,0,14.834-35.12l52.921-53.72,13.758,13.97-25.871,26.26,50.468,51.23a41.712,41.712,0,0,0,59.55,0,43.2,43.2,0,0,0,0-60.45ZM414.249,895.792H402.2L390.5,876l4.256-4.316,19.5,11.871v12.235Zm149.58-13.705a39.5,39.5,0,0,1,28.182-11.879,39.1,39.1,0,0,1,6.851.6l-22.476,22.813,3.248,29.7,29.265,3.3,22.479-22.81a40.784,40.784,0,0,1-11.113,35.557,39.5,39.5,0,0,1-56.436,0q-1.371-1.393-2.59-2.895A40.974,40.974,0,0,1,563.829,882.087ZM457.184,1104.91a39.4,39.4,0,0,1-35.032,11.27l22.475-22.81-3.25-29.7-29.262-3.3-22.479,22.81a40.79,40.79,0,0,1,11.109-35.56,38.922,38.922,0,0,1,29.039-11.85,39.521,39.521,0,0,1,27.4,11.85,40.422,40.422,0,0,1,6.846,9.29A41.02,41.02,0,0,1,457.184,1104.91Zm21.132-41.52c-0.08-.31-0.216-0.61-0.3-0.93q-0.646-2.37-1.5-4.66c-0.162-.43-0.3-0.87-0.475-1.29a51.867,51.867,0,0,0-2.6-5.46c-0.224-.41-0.48-0.79-0.714-1.19q-1.233-2.1-2.664-4.09c-0.339-.46-0.674-0.93-1.028-1.39a52.319,52.319,0,0,0-4.038-4.68,50.536,50.536,0,0,0-4.623-4.11c-0.443-.35-0.894-0.68-1.346-1.02q-1.978-1.47-4.073-2.74c-0.379-.22-0.744-0.48-1.128-0.69a49.913,49.913,0,0,0-5.4-2.66c-0.406-.17-0.824-0.3-1.234-0.46q-2.277-.885-4.633-1.55c-0.306-.08-0.595-0.22-0.9-0.3L542.7,923.6c0.08,0.32.217,0.62,0.3,0.938q0.642,2.364,1.5,4.647c0.163,0.434.3,0.873,0.476,1.3a51.7,51.7,0,0,0,2.6,5.455c0.224,0.408.48,0.794,0.715,1.194q1.231,2.1,2.661,4.081c0.34,0.468.675,0.938,1.03,1.4a51.927,51.927,0,0,0,4.037,4.683,51.372,51.372,0,0,0,4.624,4.1c0.443,0.354.893,0.686,1.346,1.021q1.977,1.475,4.073,2.738c0.378,0.227.743,0.479,1.127,0.7a50.347,50.347,0,0,0,5.4,2.656c0.407,0.168.824,0.3,1.235,0.463q2.275,0.884,4.632,1.543c0.307,0.085.6,0.22,0.9,0.3Zm144.528,44.13a30.772,30.772,0,0,1-43.938,0l-42.664-43.3,43.939-44.6,42.663,43.31A31.861,31.861,0,0,1,622.844,1107.52Zm-30.49-23.03,7.806-7.93,7.806,7.93-7.806,7.92Zm-19.523-19.8,7.807-7.92,7.806,7.92-7.806,7.93Z" transform="translate(-378 -859)"/>
</svg>
