<svg xmlns="http://www.w3.org/2000/svg" width="268.37" height="301.596" viewBox="0 0 268.37 301.596">
  <metadata><?xpacket begin="﻿" id="W5M0MpCehiHzreSzNTczkc9d"?>
<x:xmpmeta xmlns:x="adobe:ns:meta/" x:xmptk="Adobe XMP Core 5.6-c142 79.160924, 2017/07/13-01:06:39        ">
   <rdf:RDF xmlns:rdf="http://www.w3.org/1999/02/22-rdf-syntax-ns#">
      <rdf:Description rdf:about=""/>
   </rdf:RDF>
</x:xmpmeta>
                                                                                                    
                                                                                                    
                                                                                                    
                                                                                                    
                                                                                                    
                                                                                                    
                                                                                                    
                                                                                                    
                                                                                                    
                                                                                                    
                                                                                                    
                                                                                                    
                                                                                                    
                                                                                                    
                                                                                                    
                                                                                                    
                                                                                                    
                                                                                                    
                                                                                                    
                                                                                                    
                           
<?xpacket end="w"?></metadata>
<defs>
    <style>
      .cls-1 {
        fill: #95009a;
        fill-rule: evenodd;
        opacity: 0.8;
      }
    </style>
  </defs>
  <path id="icon" class="cls-1" d="M1410.3,825.722l12.06-3.117,6.2,23.962-12.06,3.117ZM1350.12,863.3l8.9-8.689,17.42,17.635-8.9,8.689Zm-33.3,62.409,3.35-11.933,23.98,6.583-3.35,11.933Zm-0.61,58.545,24.12-6.234L1343.42,990l-24.11,6.233Zm31.99,62.878,17.78-17.37,8.71,8.81-17.78,17.38Zm208.43-55.571,3.35-11.934,23.98,6.583-3.35,11.935Zm0.74-69.644,24.12-6.234,3.1,11.981-24.12,6.233Zm-31.27-48.576,17.79-17.377,8.71,8.818-17.79,17.378Zm-51.58-26.448,6.69-23.869,11.99,3.289-6.69,23.872Zm64.77,79.7a93.216,93.216,0,0,0-123.86-63.237c-40.05,15.211-64.93,56.86-59.17,99.035a91.538,91.538,0,0,0,28.76,55.492,179.561,179.561,0,0,1,36.32,47.84l-18.52,4.79,3.1,11.98,20.99-5.43q2.565,5.655,4.82,11.54l-16.68,4.31,3.09,11.98,17.72-4.58c1.2,3.81,2.37,7.63,3.38,11.55l3.19,12.32,96.46-24.94-3.84-14.85c-0.78-3.04-1.39-6.12-2.02-9.19l17.75-4.59-3.09-11.98-16.71,4.31q-0.825-6.18-1.23-12.46l20.87-5.39-3.1-11.99-18.18,4.71a223.089,223.089,0,0,1,9.22-62.472A92.069,92.069,0,0,0,1539.29,926.59Zm-16.3,160.92,0.75,2.87-72.35,18.7-0.09-.33c-1.01-3.92-2.19-7.74-3.39-11.55l73.06-18.89C1521.61,1081.39,1522.21,1084.47,1522.99,1087.51Zm-4.14-21.43-75.01,19.39q-2.205-5.9-4.71-11.57l78.37-20.25Q1517.98,1059.9,1518.85,1066.08Zm-1.95-25.06-83.17,21.5a192.263,192.263,0,0,0-40.22-53.71,79.371,79.371,0,0,1-24.91-48.124c-4.99-36.528,16.56-72.6,51.24-85.773a80.786,80.786,0,0,1,107.39,54.794,79.7,79.7,0,0,1-.62,42.218A233.556,233.556,0,0,0,1516.9,1041.02Z" transform="translate(-1316.22 -822.594)"/>
</svg>
